<svg xmlns="http://www.w3.org/2000/svg" xmlns:xlink="http://www.w3.org/1999/xlink" viewBox="0 0 126.67 126.67"><defs><style>.cls-1{isolation:isolate;}.cls-2{fill:#f1d9bc;}.cls-3{fill:#fff;}.cls-4,.cls-9{mix-blend-mode:color-dodge;}.cls-4{fill:url(#radial-gradient);}.cls-5{fill:#444242;}.cls-11,.cls-12,.cls-13,.cls-14,.cls-15,.cls-6,.cls-8{mix-blend-mode:multiply;}.cls-6{fill:url(#Degradado_sin_nombre_10);}.cls-7{fill:#2a2928;}.cls-10,.cls-7{opacity:0.3;}.cls-8{fill:url(#Degradado_sin_nombre_13);}.cls-9{opacity:0.6;fill:url(#Degradado_sin_nombre_20);}.cls-10{mix-blend-mode:color-burn;fill:url(#radial-gradient-2);}.cls-11,.cls-13{fill:#141c12;}.cls-11,.cls-12{opacity:0.5;}.cls-14{opacity:0.7;}.cls-16{mix-blend-mode:screen;fill:url(#radial-gradient-3);}</style><radialGradient id="radial-gradient" cx="50.05" cy="87.39" r="60.5" gradientTransform="translate(9.72 13.76) scale(0.97 0.72)" gradientUnits="userSpaceOnUse"><stop offset="0" stop-color="#b94770"/><stop offset="0.13" stop-color="#b4466d"/><stop offset="0.29" stop-color="#a54265"/><stop offset="0.46" stop-color="#8c3b57"/><stop offset="0.65" stop-color="#6a3243"/><stop offset="0.84" stop-color="#3f272a"/><stop offset="1" stop-color="#141c12"/></radialGradient><radialGradient id="Degradado_sin_nombre_10" cx="54.57" cy="92.04" r="49.86" gradientTransform="translate(9.72 28.59) scale(0.97 0.58)" gradientUnits="userSpaceOnUse"><stop offset="0" stop-color="#fff"/><stop offset="0.1" stop-color="#efeeee"/><stop offset="0.3" stop-color="#c5c2c1"/><stop offset="0.59" stop-color="#807c7a"/><stop offset="0.94" stop-color="#241c18"/><stop offset="0.95" stop-color="#211915"/></radialGradient><radialGradient id="Degradado_sin_nombre_13" cx="54.57" cy="92.04" r="49.86" gradientTransform="translate(9.72 22.41) scale(0.97 0.64)" gradientUnits="userSpaceOnUse"><stop offset="0" stop-color="#444242"/><stop offset="0.9" stop-color="#535353"/><stop offset="0.95" stop-color="#545454"/></radialGradient><radialGradient id="Degradado_sin_nombre_20" cx="54.57" cy="92.04" r="49.86" gradientTransform="translate(9.72 22.41) scale(0.97 0.64)" gradientUnits="userSpaceOnUse"><stop offset="0" stop-color="#f7f7f8"/><stop offset="0.14" stop-color="#e6e6e7"/><stop offset="0.41" stop-color="#bababb"/><stop offset="0.79" stop-color="#737374"/><stop offset="0.95" stop-color="#545454"/></radialGradient><radialGradient id="radial-gradient-2" cx="52.31" cy="76.09" r="25.78" gradientTransform="matrix(0.97, 0, 0, 1.05, 10.02, -13.98)" gradientUnits="userSpaceOnUse"><stop offset="0" stop-color="#f1f2f0"/><stop offset="0.27" stop-color="#eff0ee"/><stop offset="0.41" stop-color="#e7e8e6"/><stop offset="0.52" stop-color="#d9dbd8"/><stop offset="0.62" stop-color="#c6c8c5"/><stop offset="0.71" stop-color="#adb0ac"/><stop offset="0.79" stop-color="#8e938d"/><stop offset="0.87" stop-color="#6a6f68"/><stop offset="0.94" stop-color="#41483f"/><stop offset="1" stop-color="#141c12"/></radialGradient><radialGradient id="radial-gradient-3" cx="52.52" cy="75.89" r="38.28" gradientTransform="translate(9.72 -7.51) scale(0.97 0.97)" gradientUnits="userSpaceOnUse"><stop offset="0" stop-color="#fff"/><stop offset="0.01" stop-color="#eee"/><stop offset="0.04" stop-color="#b8b7b8"/><stop offset="0.07" stop-color="#878688"/><stop offset="0.1" stop-color="#5f5d5f"/><stop offset="0.13" stop-color="#3d3c3e"/><stop offset="0.17" stop-color="#242225"/><stop offset="0.2" stop-color="#111012"/><stop offset="0.24" stop-color="#070508"/><stop offset="0.27" stop-color="#030104"/><stop offset="1" stop-color="#030104"/></radialGradient></defs><title>eyes_black</title><g class="cls-1"><g id="Capa_1" data-name="Capa 1"><circle class="cls-2" cx="63.33" cy="63.33" r="63.33"/><path class="cls-3" d="M9.2,74.08a8.65,8.65,0,0,0,1.73-1.39c6.27-5.16,14.69-11.27,22.7-14.93a69.14,69.14,0,0,1,18.09-5.52,63.58,63.58,0,0,1,24.52.92A73.08,73.08,0,0,1,92.37,59a86.37,86.37,0,0,1,19.49,13.33,0.76,0.76,0,0,1,.14,1.27c-1.28,1.47-2.47,3-3.81,4.43A66.26,66.26,0,0,1,81.84,95.18,49.11,49.11,0,0,1,58.78,97.8a103.76,103.76,0,0,1-16.28-3.1C36.26,92.92,30.1,91,23.9,89.13c-1.42-.43-2.25-0.14-3.78-1.19C14.55,84.13,11.54,80.57,9.2,74.08Z" transform="translate(-5.12 -5.12)"/><circle class="cls-3" cx="68.49" cy="56.34" r="5.01"/><circle cx="60.52" cy="65.9" r="27.09"/><path d="M7.18,71.86l0-.07,0.09-.2c0.08-.18.2-0.44,0.36-0.78s0.37-.76.62-1.24,0.56-1,.91-1.65c0.71-1.22,1.63-2.67,2.78-4.28,0.57-.8,1.22-1.63,1.9-2.5s1.45-1.75,2.27-2.66A64.66,64.66,0,0,1,21.78,53a67.6,67.6,0,0,1,7-5.33c1.28-.84,2.61-1.67,4-2.44,0.68-.4,1.39-0.76,2.09-1.15,0.35-.19.71-0.36,1.07-0.54S36.68,43.15,37,43a75.57,75.57,0,0,1,9.07-3.64,79.61,79.61,0,0,1,9.45-2.42l1.18-.23,1.18-.2,1.18-.18,1.17-.15L61.44,36l1.16-.12,1.15-.12,1.15-.09a87.18,87.18,0,0,1,8.77-.23c2.78,0.08,5.41.24,7.81,0.52l0.89,0.1,0.87,0.11,1.68,0.22c0.55,0.07,1.07.17,1.59,0.25L88,36.9l2.69,0.52c0.83,0.17,1.59.35,2.27,0.51s1.29,0.3,1.82.45l1.34,0.36L97.25,39,96.09,39c-0.75,0-1.85-.12-3.24-0.18l-1.1-.06-1.21-.06-2.71-.1c-1,0-2-.06-3.08-0.07h-3.4l-1.81,0-1.88.06-1,0-1,0-1,0-1,.06-2,.14-2.09.18-0.53,0-0.53.06-1.07.11c-0.72.07-1.44,0.17-2.16,0.26l-1.09.14-1.1.17L62,40l-1.11.19-1.11.19-1.12.22-1.12.21-1.12.24c-3,.66-6,1.45-8.95,2.42-0.74.24-1.47,0.49-2.2,0.74l-1.09.4-0.54.2-0.54.21L42,45.5,41,45.94c-0.71.28-1.41,0.6-2.11,0.91-1.39.63-2.76,1.28-4.09,2l-1,.52-1,.53c-0.65.35-1.28,0.72-1.92,1.08a83.45,83.45,0,0,0-7,4.61c-0.55.39-1.07,0.79-1.59,1.19l-0.76.6-0.75.59c-1,.78-1.91,1.59-2.8,2.36s-1.71,1.55-2.49,2.29-1.5,1.47-2.17,2.16c-1.34,1.38-2.46,2.64-3.36,3.7s-1.58,1.92-2,2.52l-0.52.68-0.13.18Z" transform="translate(-5.12 -5.12)"/><circle class="cls-4" cx="60.52" cy="65.9" r="25.93"/><circle class="cls-5" cx="60.52" cy="65.9" r="25.93"/><circle class="cls-5" cx="60.52" cy="65.9" r="24.67"/><circle class="cls-6" cx="60.52" cy="65.9" r="24.67"/><polygon class="cls-7" points="81.03 79.6 64.33 68.69 79.81 81.27 64.09 69 78.46 82.83 63.82 69.29 76.98 84.27 63.52 69.56 75.39 85.58 63.2 69.79 73.69 86.76 62.87 70.01 71.89 87.79 62.52 70.19 70.02 88.67 62.15 70.34 68.09 89.38 61.78 70.46 66.09 89.93 61.39 70.55 64.06 90.31 61 70.61 62.01 90.53 60.6 70.63 59.94 90.56 60.21 70.63 57.88 90.43 59.81 70.58 55.84 90.13 59.42 70.51 53.83 89.65 59.04 70.4 51.87 89.01 58.67 70.26 49.96 88.2 58.31 70.09 48.13 87.24 57.97 69.89 46.39 86.13 57.65 69.67 44.75 84.88 57.34 69.41 43.22 83.49 57.06 69.14 41.8 81.98 56.8 68.83 40.52 80.36 56.57 68.51 39.39 78.64 56.36 68.17 38.39 76.82 56.19 67.82 37.56 74.94 56.04 67.45 36.88 72.98 55.93 67.07 36.37 70.98 55.85 66.68 36.03 68.94 55.8 66.29 35.87 66.88 55.78 65.89 35.87 64.82 55.8 65.5 36.05 62.76 55.85 65.11 36.4 60.72 55.93 64.72 36.91 58.72 56.05 64.34 37.6 56.77 56.2 63.97 38.44 54.89 56.37 63.62 39.44 53.08 56.58 63.28 40.59 51.36 56.81 62.96 41.88 49.74 57.07 62.66 43.29 48.24 57.36 62.38 44.83 46.86 57.66 62.13 46.48 45.62 57.99 61.9 48.23 44.51 58.33 61.71 50.06 43.56 58.69 61.54 51.97 42.76 59.06 61.4 53.93 42.13 59.44 61.3 55.94 41.66 59.83 61.22 57.99 41.37 60.23 61.18 60.05 41.24 60.62 61.17 62.12 41.29 61.02 61.2 64.17 41.51 61.41 61.26 66.2 41.9 61.8 61.35 68.19 42.46 62.17 61.47 70.12 43.18 62.54 61.63 71.99 44.07 62.89 61.81 73.78 45.1 63.22 62.02 75.47 46.29 63.54 62.27 77.06 47.61 63.83 62.53 78.53 49.06 64.1 62.82 79.88 50.62 64.35 63.13 81.09 52.3 64.56 63.46 82.16 54.07 64.76 63.81 83.07 55.92 64.92 64.17 83.83 57.84 65.05 64.55 84.42 59.82 65.14 64.93 84.84 61.84 65.21 65.32 85.1 63.89 65.24 65.72 85.18 65.96 65.24 66.11 85.09 68.02 65.21 66.51 84.83 70.07 65.14 66.9 84.39 72.09 65.04 67.28 83.79 74.07 64.91 67.66 83.03 75.99 64.75 68.02 82.11 77.83 64.56 68.36 81.03 79.6"/><circle class="cls-8" cx="60.52" cy="65.9" r="24.67"/><circle class="cls-9" cx="60.52" cy="65.9" r="24.67"/><circle class="cls-10" cx="60.52" cy="65.9" r="25.93"/><circle class="cls-11" cx="60.52" cy="65.9" r="11.82"/><g class="cls-12"><circle class="cls-13" cx="60.52" cy="65.9" r="10.23"/></g><g class="cls-14"><circle class="cls-13" cx="60.52" cy="65.9" r="10.23"/></g><g class="cls-15"><circle class="cls-16" cx="60.52" cy="65.9" r="11.82"/><circle class="cls-16" cx="60.52" cy="65.9" r="11.82"/><circle class="cls-16" cx="60.52" cy="65.9" r="11.82"/><circle class="cls-16" cx="60.52" cy="65.9" r="11.82"/></g><circle class="cls-3" cx="67.48" cy="58.94" r="5.01"/><path d="M129.72,71.74c0-.29-7.77-3.94-8.56-4.59L119.8,66c2.41-.23,6-0.73,7-1.66,1.16-1.16-6.39-3.77-13.38-4.68,2.18-.64,4.73-1.56,5.37-2.45,0.94-1.32-6.72-2.62-13.69-2.41,2-.75,4.29-1.74,4.84-2.61,0.85-1.36-6.69-2.22-13.57-1.64,1.75-.72,3.44-1.57,3.9-2.32,0.81-1.33-6.36-2.09-13.1-1.5a6.6,6.6,0,0,0,2.25-2.14c0.53-1.33-5.52-1.06-11.58.32a63.38,63.38,0,0,0-9.46-1,74.56,74.56,0,0,0-34.41,7.48C25.11,55.71,18.38,61.79,12,69.11c-1.42,1.63-3.41,3.49-4.2,5.54,0.11,0.11.22,0,.36-0.06a22.35,22.35,0,0,0,2.49-1.92c6.27-5.16,14.69-11.27,22.7-14.93a69.14,69.14,0,0,1,18.09-5.52A63.58,63.58,0,0,1,76,53.16,73.08,73.08,0,0,1,92.1,59,86.37,86.37,0,0,1,111.58,72.3a0.76,0.76,0,0,1,.14,1.27c-1.28,1.47-2.47,3-3.81,4.43A66.26,66.26,0,0,1,81.56,95.17a49.11,49.11,0,0,1-23.05,2.62,103.76,103.76,0,0,1-16.28-3.1C36,92.91,29.83,91,23.63,89.11c-1.42-.43-2.82-0.87-4.23-1.31L19.29,88c-0.12.18,11.64,5,12.46,5.34a116,116,0,0,0,15.35,5.36,82.48,82.48,0,0,0,16.39,2.41,62.28,62.28,0,0,0,10.71-.42c6.72,1.05,14.33,1.12,13.69.06-0.33-.55-1.72-1.25-3.25-1.88,6.68,0.43,13.8-.1,13-1.07-0.42-.53-2-1.12-3.6-1.63,6.71-.39,13.61-1.78,12.63-2.64S101,92,98.85,91.79l0.34-.2c7.51-.07,17.21-1.9,16-2.9-0.75-.64-3.71-1.24-6-1.63,6.35-.41,12.25-1.87,11.14-3s-4.56-1.8-7.06-2.29c8-.35,16-2.21,14.58-3.59s-6.26-2.33-9.17-2.87c2-.29,4.11-0.72,6.14-1.08C126.2,74,129.88,73.38,129.72,71.74Z" transform="translate(-5.12 -5.12)"/></g></g></svg>