<svg xmlns="http://www.w3.org/2000/svg" xmlns:xlink="http://www.w3.org/1999/xlink" viewBox="0 0 126.67 126.67"><defs><style>.cls-1{isolation:isolate;}.cls-2{fill:#f1d9bc;}.cls-3{fill:#fff;}.cls-10,.cls-4{mix-blend-mode:color-dodge;}.cls-4{fill:url(#radial-gradient);}.cls-5{fill:#4b7fb0;}.cls-6{fill:#406eb0;}.cls-12,.cls-13,.cls-14,.cls-15,.cls-16,.cls-7,.cls-9{mix-blend-mode:multiply;}.cls-7{fill:url(#radial-gradient-2);}.cls-8{fill:#5c9ccf;}.cls-11,.cls-8{opacity:0.3;}.cls-9{fill:url(#Degradado_sin_nombre_7);}.cls-10{opacity:0.6;fill:url(#Degradado_sin_nombre_9);}.cls-11{mix-blend-mode:color-burn;fill:url(#radial-gradient-3);}.cls-12,.cls-14{fill:#0c0d1a;}.cls-12,.cls-13{opacity:0.5;}.cls-15{opacity:0.7;}.cls-17{mix-blend-mode:screen;fill:url(#radial-gradient-4);}</style><radialGradient id="radial-gradient" cx="63.23" cy="82.28" r="59.17" gradientTransform="translate(-5.12 15.58) scale(1 0.75)" gradientUnits="userSpaceOnUse"><stop offset="0" stop-color="#83b04b"/><stop offset="0.13" stop-color="#7fab49"/><stop offset="0.29" stop-color="#749c45"/><stop offset="0.47" stop-color="#63833e"/><stop offset="0.65" stop-color="#496133"/><stop offset="0.85" stop-color="#2a3626"/><stop offset="1" stop-color="#0c0d1a"/></radialGradient><radialGradient id="radial-gradient-2" cx="67.65" cy="86.83" r="48.76" gradientTransform="translate(-5.12 30.08) scale(1 0.59)" gradientUnits="userSpaceOnUse"><stop offset="0" stop-color="#fff"/><stop offset="0.11" stop-color="#eeeef3"/><stop offset="0.33" stop-color="#c1c3d3"/><stop offset="0.63" stop-color="#7a7da0"/><stop offset="0.95" stop-color="#272c65"/></radialGradient><radialGradient id="Degradado_sin_nombre_7" cx="67.65" cy="86.83" r="48.76" gradientTransform="translate(-5.12 24.05) scale(1 0.66)" gradientUnits="userSpaceOnUse"><stop offset="0" stop-color="#5da19b"/><stop offset="0.42" stop-color="#5d9f99"/><stop offset="0.59" stop-color="#5c9893"/><stop offset="0.71" stop-color="#5b8c87"/><stop offset="0.82" stop-color="#587a77"/><stop offset="0.9" stop-color="#566463"/><stop offset="0.95" stop-color="#545454"/></radialGradient><radialGradient id="Degradado_sin_nombre_9" cx="67.65" cy="86.83" r="48.76" gradientTransform="translate(-5.12 24.05) scale(1 0.66)" gradientUnits="userSpaceOnUse"><stop offset="0" stop-color="#5da19b"/><stop offset="0.95" stop-color="#545454"/></radialGradient><radialGradient id="radial-gradient-3" cx="65.44" cy="71.23" r="25.22" gradientTransform="translate(-4.83 -11.45) rotate(0.22) scale(1 1.09)" gradientUnits="userSpaceOnUse"><stop offset="0" stop-color="#f1f1f2"/><stop offset="0.27" stop-color="#efeff0"/><stop offset="0.41" stop-color="#e7e7e8"/><stop offset="0.52" stop-color="#d9d9dc"/><stop offset="0.62" stop-color="#c6c6c9"/><stop offset="0.7" stop-color="#adadb2"/><stop offset="0.78" stop-color="#8e8e95"/><stop offset="0.86" stop-color="#696a72"/><stop offset="0.93" stop-color="#3f404a"/><stop offset="0.99" stop-color="#10111e"/><stop offset="1" stop-color="#0c0d1a"/></radialGradient><radialGradient id="radial-gradient-4" cx="60.52" cy="65.9" r="37.44" gradientUnits="userSpaceOnUse"><stop offset="0" stop-color="#fff"/><stop offset="0.01" stop-color="#eee"/><stop offset="0.04" stop-color="#b8b7b8"/><stop offset="0.07" stop-color="#878688"/><stop offset="0.1" stop-color="#5f5d5f"/><stop offset="0.13" stop-color="#3d3c3e"/><stop offset="0.17" stop-color="#242225"/><stop offset="0.2" stop-color="#111012"/><stop offset="0.24" stop-color="#070508"/><stop offset="0.27" stop-color="#030104"/><stop offset="1" stop-color="#030104"/></radialGradient></defs><title>eyes_blue</title><g class="cls-1"><g id="Capa_1" data-name="Capa 1"><circle class="cls-2" cx="63.33" cy="63.33" r="63.33"/><path class="cls-3" d="M9.2,74.08a8.65,8.65,0,0,0,1.73-1.39c6.27-5.16,14.69-11.27,22.7-14.93a69.14,69.14,0,0,1,18.09-5.52,63.58,63.58,0,0,1,24.52.92A73.08,73.08,0,0,1,92.37,59a86.37,86.37,0,0,1,19.49,13.33,0.76,0.76,0,0,1,.14,1.27c-1.28,1.47-2.47,3-3.81,4.43A66.26,66.26,0,0,1,81.84,95.18,49.11,49.11,0,0,1,58.78,97.8a103.76,103.76,0,0,1-16.28-3.1C36.26,92.92,30.1,91,23.9,89.13c-1.42-.43-2.25-0.14-3.78-1.19C14.55,84.13,11.54,80.57,9.2,74.08Z" transform="translate(-5.12 -5.12)"/><circle class="cls-3" cx="68.49" cy="56.34" r="5.01"/><circle cx="60.52" cy="65.9" r="27.09"/><circle class="cls-4" cx="60.52" cy="65.9" r="26.21"/><circle class="cls-5" cx="60.52" cy="65.9" r="26.21"/><circle class="cls-6" cx="60.52" cy="65.9" r="24.94"/><circle class="cls-7" cx="60.52" cy="65.9" r="24.94"/><polygon class="cls-8" points="81.26 79.75 64.38 68.72 80.03 81.44 64.13 69.04 78.66 83.02 63.85 69.33 77.16 84.47 63.55 69.6 75.55 85.8 63.23 69.84 73.83 86.99 62.9 70.05 72.02 88.03 62.54 70.24 70.13 88.92 62.17 70.39 68.17 89.64 61.79 70.51 66.16 90.2 61.4 70.6 64.1 90.58 61 70.66 62.02 90.8 60.6 70.69 59.94 90.84 60.2 70.68 57.85 90.7 59.8 70.63 55.79 90.39 59.41 70.56 53.76 89.91 59.03 70.45 51.77 89.26 58.65 70.31 49.85 88.45 58.29 70.14 48 87.47 57.94 69.94 46.24 86.35 57.61 69.71 44.58 85.08 57.3 69.45 43.03 83.68 57.02 69.17 41.6 82.16 56.76 68.87 40.3 80.52 56.52 68.54 39.15 78.78 56.32 68.2 38.15 76.94 56.14 67.84 37.31 75.03 55.99 67.47 36.62 73.06 55.88 67.08 36.11 71.04 55.8 66.69 35.76 68.98 55.75 66.29 35.59 66.89 55.73 65.89 35.6 64.81 55.75 65.49 35.78 62.72 55.8 65.1 36.13 60.67 55.88 64.7 36.65 58.64 56 64.32 37.34 56.67 56.15 63.95 38.2 54.77 56.33 63.59 39.21 52.94 56.53 63.25 40.37 51.2 56.77 62.92 41.67 49.57 57.03 62.62 43.1 48.05 57.32 62.34 44.66 46.65 57.63 62.09 46.33 45.39 57.96 61.86 48.09 44.28 58.31 61.66 49.94 43.31 58.67 61.49 51.87 42.51 59.05 61.35 53.86 41.87 59.43 61.24 55.89 41.4 59.83 61.17 57.96 41.09 60.22 61.13 60.05 40.97 60.62 61.12 62.13 41.02 61.02 61.15 64.21 41.24 61.42 61.21 66.26 41.64 61.81 61.3 68.27 42.2 62.19 61.42 70.23 42.93 62.56 61.58 72.12 43.83 62.91 61.77 73.92 44.88 63.25 61.98 75.64 46.07 63.57 62.23 77.24 47.41 63.87 62.49 78.73 48.87 64.14 62.79 80.09 50.45 64.39 63.1 81.32 52.15 64.61 63.44 82.39 53.94 64.8 63.79 83.32 55.81 64.96 64.15 84.08 57.75 65.09 64.53 84.68 59.75 65.19 64.92 85.11 61.8 65.26 65.31 85.37 63.87 65.29 65.71 85.45 65.96 65.29 66.11 85.36 68.04 65.26 66.51 85.09 70.12 65.19 66.91 84.66 72.16 65.09 67.3 84.05 74.16 64.96 67.67 83.28 76.1 64.79 68.04 82.34 77.97 64.6 68.39 81.26 79.75"/><circle class="cls-9" cx="60.52" cy="65.9" r="24.94"/><circle class="cls-10" cx="60.52" cy="65.9" r="24.94"/><circle class="cls-11" cx="60.52" cy="65.9" r="26.21"/><circle class="cls-12" cx="60.52" cy="65.9" r="11.95"/><g class="cls-13"><circle class="cls-14" cx="60.52" cy="65.9" r="10.34"/></g><g class="cls-15"><circle class="cls-14" cx="60.52" cy="65.9" r="10.34"/></g><g class="cls-16"><circle class="cls-17" cx="60.52" cy="65.9" r="11.95"/><circle class="cls-17" cx="60.52" cy="65.9" r="11.95"/><circle class="cls-17" cx="60.52" cy="65.9" r="11.95"/><circle class="cls-17" cx="60.52" cy="65.9" r="11.95"/></g><path d="M7.18,71.86l0-.07,0.09-.2c0.08-.18.2-0.44,0.36-0.78s0.37-.76.62-1.24,0.56-1,.91-1.65c0.71-1.22,1.63-2.67,2.78-4.28,0.57-.8,1.22-1.63,1.9-2.5s1.45-1.75,2.27-2.66A64.66,64.66,0,0,1,21.78,53a67.6,67.6,0,0,1,7-5.33c1.28-.84,2.61-1.67,4-2.44,0.68-.4,1.39-0.76,2.09-1.15,0.35-.19.71-0.36,1.07-0.54S36.68,43.15,37,43a75.57,75.57,0,0,1,9.07-3.64,79.61,79.61,0,0,1,9.45-2.42l1.18-.23,1.18-.2,1.18-.18,1.17-.15L61.44,36l1.16-.12,1.15-.12,1.15-.09a87.18,87.18,0,0,1,8.77-.23c2.78,0.08,5.41.24,7.81,0.52l0.89,0.1,0.87,0.11,1.68,0.22c0.55,0.07,1.07.17,1.59,0.25L88,36.9l2.69,0.52c0.83,0.17,1.59.35,2.27,0.51s1.29,0.3,1.82.45l1.34,0.36L97.25,39,96.09,39c-0.75,0-1.85-.12-3.24-0.18l-1.1-.06-1.21-.06-2.71-.1c-1,0-2-.06-3.08-0.07h-3.4l-1.81,0-1.88.06-1,0-1,0-1,0-1,.06-2,.14-2.09.18-0.53,0-0.53.06-1.07.11c-0.72.07-1.44,0.17-2.16,0.26l-1.09.14-1.1.17L62,40l-1.11.19-1.11.19-1.12.22-1.12.21-1.12.24c-3,.66-6,1.45-8.95,2.42-0.74.24-1.47,0.49-2.2,0.74l-1.09.4-0.54.2-0.54.21L42,45.5,41,45.94c-0.71.28-1.41,0.6-2.11,0.91-1.39.63-2.76,1.28-4.09,2l-1,.52-1,.53c-0.65.35-1.28,0.72-1.92,1.08a83.45,83.45,0,0,0-7,4.61c-0.55.39-1.07,0.79-1.59,1.19l-0.76.6-0.75.59c-1,.78-1.91,1.59-2.8,2.36s-1.71,1.55-2.49,2.29-1.5,1.47-2.17,2.16c-1.34,1.38-2.46,2.64-3.36,3.7s-1.58,1.92-2,2.52l-0.52.68-0.13.18Z" transform="translate(-5.12 -5.12)"/><path d="M129.72,71.74c0-.29-7.77-3.94-8.56-4.59L119.8,66c2.41-.23,6-0.73,7-1.66,1.16-1.16-6.39-3.77-13.38-4.68,2.18-.64,4.73-1.56,5.37-2.45,0.94-1.32-6.72-2.62-13.69-2.41,2-.75,4.29-1.74,4.84-2.61,0.85-1.36-6.69-2.22-13.57-1.64,1.75-.72,3.44-1.57,3.9-2.32,0.81-1.33-6.36-2.09-13.1-1.5a6.6,6.6,0,0,0,2.25-2.14c0.53-1.33-5.52-1.06-11.58.32a63.38,63.38,0,0,0-9.46-1,74.56,74.56,0,0,0-34.41,7.48C25.11,55.71,18.38,61.79,12,69.11c-1.42,1.63-3.41,3.49-4.2,5.54,0.11,0.11.22,0,.36-0.06a22.35,22.35,0,0,0,2.49-1.92c6.27-5.16,14.69-11.27,22.7-14.93a69.14,69.14,0,0,1,18.09-5.52A63.58,63.58,0,0,1,76,53.16,73.08,73.08,0,0,1,92.1,59,86.37,86.37,0,0,1,111.58,72.3a0.76,0.76,0,0,1,.14,1.27c-1.28,1.47-2.47,3-3.81,4.43A66.26,66.26,0,0,1,81.56,95.17a49.11,49.11,0,0,1-23.05,2.62,103.76,103.76,0,0,1-16.28-3.1C36,92.91,29.83,91,23.63,89.11c-1.42-.43-2.82-0.87-4.23-1.31L19.29,88c-0.12.18,11.64,5,12.46,5.34a116,116,0,0,0,15.35,5.36,82.48,82.48,0,0,0,16.39,2.41,62.28,62.28,0,0,0,10.71-.42c6.72,1.05,14.33,1.12,13.69.06-0.33-.55-1.72-1.25-3.25-1.88,6.68,0.43,13.8-.1,13-1.07-0.42-.53-2-1.12-3.6-1.63,6.71-.39,13.61-1.78,12.63-2.64S101,92,98.85,91.79l0.34-.2c7.51-.07,17.21-1.9,16-2.9-0.75-.64-3.71-1.24-6-1.63,6.35-.41,12.25-1.87,11.14-3s-4.56-1.8-7.06-2.29c8-.35,16-2.21,14.58-3.59s-6.26-2.33-9.17-2.87c2-.29,4.11-0.72,6.14-1.08C126.2,74,129.88,73.38,129.72,71.74Z" transform="translate(-5.12 -5.12)"/><circle class="cls-3" cx="70.86" cy="60.58" r="5.01"/></g></g></svg>