<svg id="Layer_1" data-name="Layer 1" xmlns="http://www.w3.org/2000/svg" viewBox="0 0 126.67 126.67"><defs><style>.cls-1{fill:#ddedf7;}.cls-2{fill:#d95120;}.cls-3{fill:#e3c8a5;}.cls-4{fill:#a52b31;}</style></defs><title>hair_red</title><circle class="cls-1" cx="63.33" cy="63.33" r="63.33"/><path class="cls-2" d="M68.46,19.65S84.68,8.77,100,31.93s-6,82.37-6,82.37H43s-21.31-59.21-6-82.37S68.46,19.65,68.46,19.65Z" transform="translate(-5.12 -5.12)"/><path class="cls-3" d="M75.31,86.31c8.75-3.3,15.1-13.24,15.1-25,0-14.44-9.61-26.15-21.46-26.15S47.5,46.89,47.5,61.33c0,11.75,6.36,21.68,15.1,25,0.54,6.41-.7,22.87-27.39,24.44a1.83,1.83,0,0,0-.68,3.48c6.06,2.95,19.2,5.59,34.42,5.59s28.36-2.64,34.42-5.59a1.83,1.83,0,0,0-.68-3.48C76,109.18,74.77,92.73,75.31,86.31Z" transform="translate(-5.12 -5.12)"/><path class="cls-4" d="M70.09,75.08A1.46,1.46,0,0,0,69,75.5a1.46,1.46,0,0,0-1.13-.42c-0.79,0-3.35,1.88-4.21,2.62a5.72,5.72,0,0,1,1.69,1.13A4.72,4.72,0,0,0,69,81a4.72,4.72,0,0,0,3.65-2.22A5.73,5.73,0,0,1,74.3,77.7C73.44,77,70.87,75.08,70.09,75.08Z" transform="translate(-5.12 -5.12)"/><path class="cls-2" d="M47.52,54.74c22.65,0,30.38-17.18,30.38-17.18s3.7,17.18,12.53,17.18h7.48l-3-27.42H49L39,54.74h8.53Z" transform="translate(-5.12 -5.12)"/></svg>