<svg id="Layer_1" data-name="Layer 1" xmlns="http://www.w3.org/2000/svg" viewBox="0 0 126.67 126.67"><defs><style>.cls-1{fill:#ddedf7;}.cls-2{fill:#fff;}.cls-3{fill:#4e4e4e;}.cls-4{fill:#363636;}.cls-5{fill:#df9130;}.cls-6{font-size:4px;fill:#f0f0f0;font-family:Helvetica;}.cls-7{fill:#00a99d;}.cls-8{fill:#603813;}</style></defs><title>hair_dye</title><circle class="cls-1" cx="63.33" cy="63.33" r="63.33"/><polygon class="cls-2" points="68.13 30.6 72.15 43.75 66.75 31.1 68.13 30.6"/><polygon class="cls-2" points="69.81 29.98 73.83 43.14 68.43 30.49 69.81 29.98"/><polygon class="cls-2" points="71.5 29.37 75.52 42.52 70.11 29.87 71.5 29.37"/><polygon class="cls-2" points="73.18 28.75 77.2 41.91 71.79 29.26 73.18 28.75"/><polygon class="cls-2" points="74.86 28.14 78.89 41.29 73.48 28.64 74.86 28.14"/><polygon class="cls-2" points="76.55 27.52 80.57 40.68 75.16 28.03 76.55 27.52"/><polygon class="cls-2" points="78.23 26.91 82.25 40.06 76.84 27.41 78.23 26.91"/><polygon class="cls-2" points="79.91 26.29 83.93 39.45 78.53 26.8 79.91 26.29"/><polygon class="cls-2" points="81.6 25.68 85.62 38.83 80.21 26.18 81.6 25.68"/><polygon class="cls-2" points="83.28 25.06 87.3 38.22 81.89 25.57 83.28 25.06"/><polygon class="cls-2" points="84.96 24.45 88.98 37.6 83.58 24.95 84.96 24.45"/><polygon class="cls-2" points="86.65 23.83 90.67 36.99 85.26 24.34 86.65 23.83"/><path class="cls-3" d="M76.51,48.93C78.16,53.46,83.87,57.7,88.4,56c0,0,20.08,53.95,21.51,53.42s-18-54.71-18-54.71c4.53-1.65,6.15-8.58,4.5-13.11C96.28,41.29,76.38,48.57,76.51,48.93Z" transform="translate(-5.12 -5.12)"/><rect class="cls-4" x="33.46" y="87.12" width="8.5" height="13.41" rx="0.79" ry="0.79"/><path class="cls-5" d="M53.58,85A10.74,10.74,0,0,1,42.84,95.72h0A10.74,10.74,0,0,1,32.1,85L30.52,29.56c0-5.93,6.39-2.85,12.32-2.85h0c5.93,0,12.32-3.08,12.32,2.85Z" transform="translate(-5.12 -5.12)"/><polygon class="cls-3" points="49.67 37.03 49.86 30.32 25.57 30.32 25.76 37.03 49.67 37.03"/><polygon class="cls-3" points="48.66 72.53 49.4 46.49 26.02 46.49 26.77 72.53 48.66 72.53"/><path class="cls-3" d="M31.85,29.84a0.2,0.2,0,0,1-.2-0.2V26.52a0.2,0.2,0,1,1,.39,0v3.13A0.2,0.2,0,0,1,31.85,29.84Z" transform="translate(-5.12 -5.12)"/><path class="cls-3" d="M32.61,29.47a0.2,0.2,0,0,1-.2-0.2V26.14a0.2,0.2,0,0,1,.39,0v3.13A0.2,0.2,0,0,1,32.61,29.47Z" transform="translate(-5.12 -5.12)"/><path class="cls-3" d="M33.37,29.3a0.2,0.2,0,0,1-.2-0.2V26a0.2,0.2,0,1,1,.39,0V29.1A0.2,0.2,0,0,1,33.37,29.3Z" transform="translate(-5.12 -5.12)"/><path class="cls-3" d="M34.13,29.36a0.2,0.2,0,0,1-.2-0.2V26a0.2,0.2,0,1,1,.39,0v3.13A0.2,0.2,0,0,1,34.13,29.36Z" transform="translate(-5.12 -5.12)"/><path class="cls-3" d="M34.88,29.25a0.2,0.2,0,0,1-.2-0.2V25.92a0.2,0.2,0,1,1,.39,0v3.13A0.2,0.2,0,0,1,34.88,29.25Z" transform="translate(-5.12 -5.12)"/><path class="cls-3" d="M35.64,29.43a0.2,0.2,0,0,1-.2-0.2V26.1a0.2,0.2,0,0,1,.39,0v3.13A0.2,0.2,0,0,1,35.64,29.43Z" transform="translate(-5.12 -5.12)"/><path class="cls-3" d="M36.4,29.49a0.2,0.2,0,0,1-.2-0.2V26.16a0.2,0.2,0,0,1,.39,0v3.13A0.2,0.2,0,0,1,36.4,29.49Z" transform="translate(-5.12 -5.12)"/><path class="cls-3" d="M37.16,29.6a0.2,0.2,0,0,1-.2-0.2V26.27a0.2,0.2,0,1,1,.39,0V29.4A0.2,0.2,0,0,1,37.16,29.6Z" transform="translate(-5.12 -5.12)"/><path class="cls-3" d="M37.91,29.6a0.2,0.2,0,0,1-.2-0.2V26.27a0.2,0.2,0,1,1,.39,0V29.4A0.2,0.2,0,0,1,37.91,29.6Z" transform="translate(-5.12 -5.12)"/><path class="cls-3" d="M38.67,29.76a0.2,0.2,0,0,1-.2-0.2V26.43a0.2,0.2,0,1,1,.39,0v3.13A0.2,0.2,0,0,1,38.67,29.76Z" transform="translate(-5.12 -5.12)"/><path class="cls-3" d="M39.43,29.84a0.2,0.2,0,0,1-.2-0.2V26.52a0.2,0.2,0,1,1,.39,0v3.13A0.2,0.2,0,0,1,39.43,29.84Z" transform="translate(-5.12 -5.12)"/><path class="cls-3" d="M40.19,29.84a0.2,0.2,0,0,1-.2-0.2V26.52a0.2,0.2,0,1,1,.39,0v3.13A0.2,0.2,0,0,1,40.19,29.84Z" transform="translate(-5.12 -5.12)"/><path class="cls-3" d="M40.94,29.84a0.2,0.2,0,0,1-.2-0.2V26.52a0.2,0.2,0,1,1,.39,0v3.13A0.2,0.2,0,0,1,40.94,29.84Z" transform="translate(-5.12 -5.12)"/><path class="cls-3" d="M41.7,30a0.2,0.2,0,0,1-.2-0.2V26.71a0.2,0.2,0,1,1,.39,0v3.13A0.2,0.2,0,0,1,41.7,30Z" transform="translate(-5.12 -5.12)"/><path class="cls-3" d="M42.46,30.06a0.2,0.2,0,0,1-.2-0.2V26.74a0.2,0.2,0,1,1,.39,0v3.13A0.2,0.2,0,0,1,42.46,30.06Z" transform="translate(-5.12 -5.12)"/><path class="cls-3" d="M31.09,30.45a0.2,0.2,0,0,1-.2-0.2V27.12a0.2,0.2,0,0,1,.39,0v3.13A0.2,0.2,0,0,1,31.09,30.45Z" transform="translate(-5.12 -5.12)"/><path class="cls-3" d="M53.82,29.84a0.2,0.2,0,0,1-.2-0.2V26.52a0.2,0.2,0,1,1,.39,0v3.13A0.2,0.2,0,0,1,53.82,29.84Z" transform="translate(-5.12 -5.12)"/><path class="cls-3" d="M53.06,29.47a0.2,0.2,0,0,1-.2-0.2V26.14a0.2,0.2,0,0,1,.39,0v3.13A0.2,0.2,0,0,1,53.06,29.47Z" transform="translate(-5.12 -5.12)"/><path class="cls-3" d="M52.31,29.3a0.2,0.2,0,0,1-.2-0.2V26a0.2,0.2,0,1,1,.39,0V29.1A0.2,0.2,0,0,1,52.31,29.3Z" transform="translate(-5.12 -5.12)"/><path class="cls-3" d="M51.55,29.36a0.2,0.2,0,0,1-.2-0.2V26a0.2,0.2,0,1,1,.39,0v3.13A0.2,0.2,0,0,1,51.55,29.36Z" transform="translate(-5.12 -5.12)"/><path class="cls-3" d="M50.79,29.25a0.2,0.2,0,0,1-.2-0.2V25.92a0.2,0.2,0,1,1,.39,0v3.13A0.2,0.2,0,0,1,50.79,29.25Z" transform="translate(-5.12 -5.12)"/><path class="cls-3" d="M50,29.43a0.2,0.2,0,0,1-.2-0.2V26.1a0.2,0.2,0,0,1,.39,0v3.13A0.2,0.2,0,0,1,50,29.43Z" transform="translate(-5.12 -5.12)"/><path class="cls-3" d="M49.28,29.49a0.2,0.2,0,0,1-.2-0.2V26.16a0.2,0.2,0,0,1,.39,0v3.13A0.2,0.2,0,0,1,49.28,29.49Z" transform="translate(-5.12 -5.12)"/><path class="cls-3" d="M48.52,29.6a0.2,0.2,0,0,1-.2-0.2V26.27a0.2,0.2,0,1,1,.39,0V29.4A0.2,0.2,0,0,1,48.52,29.6Z" transform="translate(-5.12 -5.12)"/><path class="cls-3" d="M47.76,29.6a0.2,0.2,0,0,1-.2-0.2V26.27a0.2,0.2,0,1,1,.39,0V29.4A0.2,0.2,0,0,1,47.76,29.6Z" transform="translate(-5.12 -5.12)"/><path class="cls-3" d="M47,29.76a0.2,0.2,0,0,1-.2-0.2V26.43a0.2,0.2,0,1,1,.39,0v3.13A0.2,0.2,0,0,1,47,29.76Z" transform="translate(-5.12 -5.12)"/><path class="cls-3" d="M46.25,29.84a0.2,0.2,0,0,1-.2-0.2V26.52a0.2,0.2,0,1,1,.39,0v3.13A0.2,0.2,0,0,1,46.25,29.84Z" transform="translate(-5.12 -5.12)"/><path class="cls-3" d="M45.49,29.84a0.2,0.2,0,0,1-.2-0.2V26.52a0.2,0.2,0,1,1,.39,0v3.13A0.2,0.2,0,0,1,45.49,29.84Z" transform="translate(-5.12 -5.12)"/><path class="cls-3" d="M44.73,29.84a0.2,0.2,0,0,1-.2-0.2V26.52a0.2,0.2,0,1,1,.39,0v3.13A0.2,0.2,0,0,1,44.73,29.84Z" transform="translate(-5.12 -5.12)"/><path class="cls-3" d="M44,30a0.2,0.2,0,0,1-.2-0.2V26.71a0.2,0.2,0,1,1,.39,0v3.13A0.2,0.2,0,0,1,44,30Z" transform="translate(-5.12 -5.12)"/><path class="cls-3" d="M43.22,30.06a0.2,0.2,0,0,1-.2-0.2V26.74a0.2,0.2,0,0,1,.39,0v3.13A0.2,0.2,0,0,1,43.22,30.06Z" transform="translate(-5.12 -5.12)"/><path class="cls-3" d="M54.58,30.45a0.2,0.2,0,0,1-.2-0.2V27.12a0.2,0.2,0,0,1,.39,0v3.13A0.2,0.2,0,0,1,54.58,30.45Z" transform="translate(-5.12 -5.12)"/><text class="cls-6" transform="translate(33.46 70.32) rotate(-90)">COLOR 30ยบ</text><path class="cls-7" d="M90.86,93.66c-1.42.73-3,1.55-3.73,3.33-3.05,7.68-7.68,11.32-9.08,12.29H55.6c-1.82-1.24-9.14-7-11.34-20.64h50.8C94.55,91.77,92.82,92.65,90.86,93.66Z" transform="translate(-5.12 -5.12)"/><path class="cls-8" d="M70.09,83.5a15.23,15.23,0,0,0,3,1.54c2.49,0.85,5.06-.6,6.4-3.61A11.64,11.64,0,0,0,80.19,75c3.18,2.06,6.75,6.06,7,13.67H49a14.34,14.34,0,0,1,9.61-7C65,80.36,67.68,82,70.09,83.5Z" transform="translate(-5.12 -5.12)"/></svg>