<svg id="Layer_1" data-name="Layer 1" xmlns="http://www.w3.org/2000/svg" viewBox="0 0 126.6 126.6"><defs><style>.cls-1{fill:#ddedf7;}.cls-2{fill:#fff;}.cls-3{fill:#4e4e4e;}.cls-4{fill:#363636;}.cls-5{fill:#df9130;}.cls-6{isolation:isolate;font-size:4px;fill:#f0f0f0;font-family:Helvetica;}.cls-7{fill:#00a99d;}.cls-8{fill:#603813;}</style></defs><title>mhair_dye</title><circle class="cls-1" cx="63.3" cy="63.3" r="63.3"/><polygon class="cls-2" points="68.1 30.6 72.2 43.7 66.8 31.1 68.1 30.6"/><polygon class="cls-2" points="69.8 30 73.8 43.1 68.4 30.5 69.8 30"/><polygon class="cls-2" points="71.5 29.4 75.5 42.5 70.1 29.9 71.5 29.4"/><polygon class="cls-2" points="73.2 28.7 77.2 41.9 71.8 29.3 73.2 28.7"/><polygon class="cls-2" points="74.9 28.1 78.9 41.3 73.5 28.6 74.9 28.1"/><polygon class="cls-2" points="76.6 27.5 80.6 40.7 75.2 28 76.6 27.5"/><polygon class="cls-2" points="78.2 26.9 82.2 40.1 76.8 27.4 78.2 26.9"/><polygon class="cls-2" points="79.9 26.3 83.9 39.4 78.5 26.8 79.9 26.3"/><polygon class="cls-2" points="81.6 25.7 85.6 38.8 80.2 26.2 81.6 25.7"/><polygon class="cls-2" points="83.3 25.1 87.3 38.2 81.9 25.6 83.3 25.1"/><polygon class="cls-2" points="85 24.4 89 37.6 83.6 24.9 85 24.4"/><polygon class="cls-2" points="86.7 23.8 90.7 37 85.3 24.3 86.7 23.8"/><path class="cls-3" d="M71.4,43.8c1.7,4.5,7.4,8.8,11.9,7.1,0,0,20.1,53.9,21.5,53.4s-18-54.7-18-54.7c4.5-1.7,6.2-8.6,4.5-13.1C91.2,36.2,71.3,43.4,71.4,43.8Z" transform="translate(0 0)"/><path class="cls-4" d="M34.2,87.1h6.9a0.86,0.86,0,0,1,.8.8V99.7a0.86,0.86,0,0,1-.8.8H34.2a0.86,0.86,0,0,1-.8-0.8V87.9A1,1,0,0,1,34.2,87.1Z" transform="translate(0 0)"/><path class="cls-5" d="M48.5,79.9A10.71,10.71,0,0,1,37.8,90.6h0A10.71,10.71,0,0,1,27.1,79.9L25.5,24.5c0-5.9,6.4-2.9,12.3-2.9h0c5.9,0,12.3-3.1,12.3,2.9Z" transform="translate(0 0)"/><polygon class="cls-3" points="49.7 37 49.9 30.3 25.6 30.3 25.8 37 49.7 37"/><polygon class="cls-3" points="48.7 72.5 49.4 46.5 26 46.5 26.8 72.5 48.7 72.5"/><path class="cls-3" d="M26.7,24.7a0.22,0.22,0,0,1-.2-0.2h0V21.4a0.16,0.16,0,0,1,.2-0.2c0.2,0,.2,0,0.2.2v3.2A0.35,0.35,0,0,1,26.7,24.7Z" transform="translate(0 0)"/><path class="cls-3" d="M27.5,24.3a0.22,0.22,0,0,1-.2-0.2h0V21a0.22,0.22,0,0,1,.2-0.2,0.38,0.38,0,0,1,.2.2v3.1A0.16,0.16,0,0,1,27.5,24.3Z" transform="translate(0 0)"/><path class="cls-3" d="M28.2,24.2A0.22,0.22,0,0,1,28,24h0V20.9a0.2,0.2,0,1,1,.4,0V24A0.16,0.16,0,0,1,28.2,24.2Z" transform="translate(0 0)"/><path class="cls-3" d="M29,24.2a0.22,0.22,0,0,1-.2-0.2h0V20.8a0.2,0.2,0,0,1,.4,0V24a0.22,0.22,0,0,1-.2.2h0Z" transform="translate(0 0)"/><path class="cls-3" d="M29.8,24.1a0.22,0.22,0,0,1-.2-0.2h0V20.8a0.2,0.2,0,0,1,.4,0V24A0.35,0.35,0,0,1,29.8,24.1Z" transform="translate(0 0)"/><path class="cls-3" d="M30.5,24.3a0.22,0.22,0,0,1-.2-0.2h0V21a0.22,0.22,0,0,1,.2-0.2,0.38,0.38,0,0,1,.2.2v3.1A0.22,0.22,0,0,1,30.5,24.3Z" transform="translate(0 0)"/><path class="cls-3" d="M31.3,24.4a0.22,0.22,0,0,1-.2-0.2h0V21a0.22,0.22,0,0,1,.2-0.2,0.38,0.38,0,0,1,.2.2v3.1A0.25,0.25,0,0,1,31.3,24.4Z" transform="translate(0 0)"/><path class="cls-3" d="M32,24.5a0.22,0.22,0,0,1-.2-0.2h0V21.2a0.2,0.2,0,0,1,.4,0v3.2A0.35,0.35,0,0,1,32,24.5Z" transform="translate(0 0)"/><path class="cls-3" d="M32.8,24.5a0.22,0.22,0,0,1-.2-0.2h0V21.2a0.2,0.2,0,0,1,.4,0v3.2A0.35,0.35,0,0,1,32.8,24.5Z" transform="translate(0 0)"/><path class="cls-3" d="M33.5,24.6a0.22,0.22,0,0,1-.2-0.2h0V21.3a0.2,0.2,0,1,1,.4,0v3.2S33.7,24.6,33.5,24.6Z" transform="translate(0 0)"/><path class="cls-3" d="M34.3,24.7a0.22,0.22,0,0,1-.2-0.2h0V21.4a0.2,0.2,0,1,1,.4,0v3.2A0.35,0.35,0,0,1,34.3,24.7Z" transform="translate(0 0)"/><path class="cls-3" d="M35.1,24.7a0.22,0.22,0,0,1-.2-0.2h0V21.4a0.2,0.2,0,1,1,.4,0v3.2A0.35,0.35,0,0,1,35.1,24.7Z" transform="translate(0 0)"/><path class="cls-3" d="M35.8,24.7a0.22,0.22,0,0,1-.2-0.2h0V21.4a0.2,0.2,0,1,1,.4,0v3.2A0.35,0.35,0,0,1,35.8,24.7Z" transform="translate(0 0)"/><path class="cls-3" d="M36.6,24.9a0.22,0.22,0,0,1-.2-0.2h0V21.6a0.2,0.2,0,0,1,.4,0v3.2A0.35,0.35,0,0,1,36.6,24.9Z" transform="translate(0 0)"/><path class="cls-3" d="M37.3,24.9a0.22,0.22,0,0,1-.2-0.2h0V21.6a0.2,0.2,0,0,1,.4,0v3.2C37.5,24.9,37.4,24.9,37.3,24.9Z" transform="translate(0 0)"/><path class="cls-3" d="M26,25.3a0.22,0.22,0,0,1-.2-0.2h0V22a0.22,0.22,0,0,1,.2-0.2,0.38,0.38,0,0,1,.2.2v3.1A0.22,0.22,0,0,1,26,25.3Z" transform="translate(0 0)"/><path class="cls-3" d="M48.7,24.7a0.22,0.22,0,0,1-.2-0.2h0V21.4a0.2,0.2,0,1,1,.4,0v3.2A0.35,0.35,0,0,1,48.7,24.7Z" transform="translate(0 0)"/><path class="cls-3" d="M47.9,24.3a0.22,0.22,0,0,1-.2-0.2h0V21a0.22,0.22,0,0,1,.2-0.2,0.38,0.38,0,0,1,.2.2v3.1A0.16,0.16,0,0,1,47.9,24.3Z" transform="translate(0 0)"/><path class="cls-3" d="M47.2,24.2A0.22,0.22,0,0,1,47,24h0V20.9a0.2,0.2,0,1,1,.4,0V24A0.22,0.22,0,0,1,47.2,24.2Z" transform="translate(0 0)"/><path class="cls-3" d="M46.4,24.2a0.22,0.22,0,0,1-.2-0.2h0V20.8a0.2,0.2,0,0,1,.4,0V24a0.16,0.16,0,0,1-.2.2h0Z" transform="translate(0 0)"/><path class="cls-3" d="M45.7,24.1a0.22,0.22,0,0,1-.2-0.2h0V20.8a0.2,0.2,0,0,1,.4,0V24A0.35,0.35,0,0,1,45.7,24.1Z" transform="translate(0 0)"/><path class="cls-3" d="M44.9,24.3a0.22,0.22,0,0,1-.2-0.2h0V21a0.22,0.22,0,0,1,.2-0.2,0.38,0.38,0,0,1,.2.2v3.1A0.22,0.22,0,0,1,44.9,24.3Z" transform="translate(0 0)"/><path class="cls-3" d="M44.2,24.4a0.22,0.22,0,0,1-.2-0.2h0V21a0.22,0.22,0,0,1,.2-0.2,0.38,0.38,0,0,1,.2.2v3.1A0.25,0.25,0,0,1,44.2,24.4Z" transform="translate(0 0)"/><path class="cls-3" d="M43.4,24.5a0.22,0.22,0,0,1-.2-0.2h0V21.2a0.2,0.2,0,0,1,.4,0v3.2A0.35,0.35,0,0,1,43.4,24.5Z" transform="translate(0 0)"/><path class="cls-3" d="M42.6,24.5a0.22,0.22,0,0,1-.2-0.2h0V21.2a0.2,0.2,0,0,1,.4,0v3.2A0.35,0.35,0,0,1,42.6,24.5Z" transform="translate(0 0)"/><path class="cls-3" d="M41.9,24.6a0.22,0.22,0,0,1-.2-0.2h0V21.3a0.2,0.2,0,0,1,.4,0v3.2A0.35,0.35,0,0,1,41.9,24.6Z" transform="translate(0 0)"/><path class="cls-3" d="M41.1,24.7a0.22,0.22,0,0,1-.2-0.2h0V21.4a0.2,0.2,0,1,1,.4,0v3.2A0.35,0.35,0,0,1,41.1,24.7Z" transform="translate(0 0)"/><path class="cls-3" d="M40.4,24.7a0.22,0.22,0,0,1-.2-0.2h0V21.4a0.2,0.2,0,1,1,.4,0v3.2A0.35,0.35,0,0,1,40.4,24.7Z" transform="translate(0 0)"/><path class="cls-3" d="M39.6,24.7a0.22,0.22,0,0,1-.2-0.2h0V21.4a0.2,0.2,0,1,1,.4,0v3.2A0.35,0.35,0,0,1,39.6,24.7Z" transform="translate(0 0)"/><path class="cls-3" d="M38.9,24.9a0.22,0.22,0,0,1-.2-0.2h0V21.6a0.2,0.2,0,0,1,.4,0v3.2A0.35,0.35,0,0,1,38.9,24.9Z" transform="translate(0 0)"/><path class="cls-3" d="M38.1,24.9a0.22,0.22,0,0,1-.2-0.2h0V21.6a0.22,0.22,0,0,1,.2-0.2,0.38,0.38,0,0,1,.2.2v3.1A0.16,0.16,0,0,1,38.1,24.9Z" transform="translate(0 0)"/><path class="cls-3" d="M49.5,25.3a0.22,0.22,0,0,1-.2-0.2h0V22a0.22,0.22,0,0,1,.2-0.2,0.38,0.38,0,0,1,.2.2v3.1A0.22,0.22,0,0,1,49.5,25.3Z" transform="translate(0 0)"/><text class="cls-6" transform="translate(33.46 70.32) rotate(-90)">COLOR 30ยบ</text><path class="cls-7" d="M85.7,88.5A7,7,0,0,0,82,91.8c-3.1,7.7-7.7,11.3-9.1,12.3H50.5c-1.8-1.2-9.1-7-11.3-20.6H90C89.4,86.6,87.7,87.5,85.7,88.5Z" transform="translate(0 0)"/><path class="cls-8" d="M65,78.4a14,14,0,0,0,3,1.5c2.5,0.8,5.1-.6,6.4-3.6a11.7,11.7,0,0,0,.7-6.4c3.2,2.1,6.8,6.1,7,13.7H43.9a14.1,14.1,0,0,1,9.6-7C59.9,75.2,62.6,76.9,65,78.4Z" transform="translate(0 0)"/></svg>