<svg id="Layer_1" data-name="Layer 1" xmlns="http://www.w3.org/2000/svg" viewBox="0 0 126.67 126.67"><defs><style>.cls-1{fill:#ddedf7;}.cls-2{fill:#e3c8a5;}.cls-3{fill:#603813;}</style></defs><title>mhair_darkbrown</title><circle class="cls-1" cx="63.33" cy="63.33" r="63.33"/><path class="cls-2" d="M77.33,86.31c8.75-3.3,13.09-13.24,13.09-25,0-14.44-9.61-26.15-21.46-26.15S47.5,46.89,47.5,61.33c0,11.75,4.35,21.68,13.1,25,0.54,6.41,1.31,22.87-25.38,24.44a1.83,1.83,0,0,0-.68,3.48c6.06,2.95,19.2,5.59,34.42,5.59s28.36-2.64,34.42-5.59a1.83,1.83,0,0,0-.68-3.48C76,109.18,76.78,92.73,77.33,86.31Z" transform="translate(-5.12 -5.12)"/><path class="cls-3" d="M51.68,66.94S51.8,63,51.55,59c-0.13-2-2.14-5.21.41-7.83,4.34-4.45,18.29,1.55,31.61-3.31a10.31,10.31,0,0,0,1.94,6.66c2.36,3.33.91,7.61,0.77,13,0,0,2.36-1.77,4.07-1.27,0,0,9-20.36-.4-24.25,0,0,.31-9.55-7.08-14.44a76.46,76.46,0,0,1-13-10.44s1.12,3.86,2.78,5.2c0,0-4.84-.38-7.93-6,0,0-2.58,4.19,1.43,6.64,0,0-3.1,0-4.26-2.35,0,0-1.11,4.09,4.47,5.19,0,0-6.74.37-6.13-5.49A39,39,0,0,0,50.46,31S52.13,26.88,53,26c0,0-3.82,2.22-6.25,10.2a39.14,39.14,0,0,0-3.23,13.43c-0.35,7.07,3.08,12.09,3.92,16C47.47,65.58,50.19,65.42,51.68,66.94Z" transform="translate(-5.12 -5.12)"/><path class="cls-3" d="M71.7,71.15a3,3,0,0,0-3.25,2.14,3,3,0,0,0-3.25-2.14c-2.61.2-3.32,3.55-5.78,1.88a3.94,3.94,0,0,0,3.3,3.22,7,7,0,0,0,5.73-1.61,7,7,0,0,0,5.73,1.61A3.94,3.94,0,0,0,77.49,73C75,74.7,74.32,71.35,71.7,71.15Z" transform="translate(-5.12 -5.12)"/></svg>