<svg id="Layer_1" data-name="Layer 1" xmlns="http://www.w3.org/2000/svg" viewBox="0 0 126.67 126.67"><defs><style>.cls-1{fill:#ebf0c7;}.cls-2{fill:#b09678;}.cls-2,.cls-3,.cls-5{fill-rule:evenodd;}.cls-3{fill:#665747;}.cls-4,.cls-5{fill:#9c856e;}.cls-6{fill:#b89e82;}</style></defs><title>pantsm</title><circle class="cls-1" cx="63.33" cy="63.33" r="63.33"/><path class="cls-2" d="M68.64,13.46c-2,0-10.31.5-14,.75s-6.54-.84-6.62.34S46.52,26.61,46,29s0.25,12.07.42,15.25,0.39,10.58.39,19.1S47,99.11,47.32,106,48,120.9,48,122s2.13,0.49,7.86.82S66,124.5,66.15,121.72s-0.66-17.53-.33-26,0.82-23.75,1-29.65S66.48,53.4,67,49.63s0.82-5.73.49-7.37,0-4.26.33-2.13S69.43,55.37,69.92,60s0.82,25.72,1.15,35.55,1,24.25,1.15,26,2,1.8,9,1.31,9.83,0.66,9.83-2.13-0.33-21.62-.16-30.31,0.16-28,.16-37.68,0.16-20.81-.66-26-2.13-10-2.46-11.63-1.38-1.63-3.09-1.47c-6.36.61-11.49,0-16.22-.14h0Z" transform="translate(-5.12 -5.12)"/><path class="cls-3" d="M68.64,13.46c-2,0-10.31.5-14,.75-2.8.19-5.12-.39-6.11-0.17,3,0.35,10.62,1.08,14.36,1.15,4,0.08,4.68-.4,5.24-0.08s-0.24-.65,1.94-0.48,9.52-.32,11.94-0.48a22.59,22.59,0,0,0,4.92-.48h0a5.09,5.09,0,0,0-2.08-.06c-6.36.61-11.49,0-16.22-.14h0Z" transform="translate(-5.12 -5.12)"/><path class="cls-4" d="M88.46,17.3c-1.23.27-3.77,0.74-6.48,1a37.15,37.15,0,0,1-5.43.27c-2.82-.12-4.82,0-6.4,0-0.75,0-1.41.06-2,.06a0.18,0.18,0,1,1,0-.36c0.61,0,1.25,0,2-.06,1.58-.06,3.59-0.14,6.42,0A36.83,36.83,0,0,0,81.94,18c2.69-.3,5.21-0.77,6.43-1l0.08,0.35h0Z" transform="translate(-5.12 -5.12)"/><path class="cls-4" d="M47.87,17.76a0.18,0.18,0,0,1,0-.36,20.11,20.11,0,0,1,3.86.37c1.39,0.22,3.07.48,5.33,0.65s4.42,0.32,6.23.4a42.4,42.4,0,0,0,4.62,0,0.18,0.18,0,1,1,0,.36,42.74,42.74,0,0,1-4.66,0c-1.83-.09-3.9-0.23-6.23-0.4s-4-.43-5.36-0.65a19.85,19.85,0,0,0-3.79-.37h0Z" transform="translate(-5.12 -5.12)"/><path class="cls-3" d="M69.66,16.5a0.12,0.12,0,1,1-.15.07,0.12,0.12,0,0,1,.15-0.07h0ZM70,16.64a0.12,0.12,0,1,1-.15.07A0.12,0.12,0,0,1,70,16.64h0Zm-0.52.24a0.12,0.12,0,1,1-.15.07,0.12,0.12,0,0,1,.15-0.07h0ZM69.91,17a0.12,0.12,0,1,1-.15.07A0.12,0.12,0,0,1,69.91,17h0Zm-0.14-1.13a0.93,0.93,0,1,1-.93.93,0.93,0.93,0,0,1,.93-0.93h0Z" transform="translate(-5.12 -5.12)"/><path class="cls-5" d="M67.49,45.58a11.16,11.16,0,0,0,0-3.32c-0.33-1.64,0-4.26.33-2.13,0.25,1.63,1.08,9.74,1.68,15.49-0.05-1.7-.55-6.17-0.59-7.44s-0.25-3.48-.4-5.27-0.7-5.62-.74-6.64-0.17-1.45.5-1.56a3.41,3.41,0,0,0,2.12-2.06c0.5-1.17.67-2.23,0-.56s-1.11,1.78-2.06,2.17S67.35,34,67.24,33a11.68,11.68,0,0,1,0-3.79C67.52,27,67.85,21.68,68,20s0.11-4.12.33-4.84a26.54,26.54,0,0,0-.52,4.76c-0.06.94-2.44,6.54-2.62,7.77a62.84,62.84,0,0,0,1.92,7.4c0.5,1,.65,2.69,0,3.13s-0.5.5-.2,1.69a22.05,22.05,0,0,1,.55,5.62v0h0Z" transform="translate(-5.12 -5.12)"/><path class="cls-5" d="M61.25,15.58c-0.07.33-.06,1.89-0.06,2.69s-0.17,2.6-.12,2.93,0.36,0.38,1,.43,0.91,0.13.89-.36,0-2.18,0-3a7.39,7.39,0,0,1,.23-2.42c0.21-.33,0-0.51-0.85-0.58s-1.08.11-1.13,0.34h0Z" transform="translate(-5.12 -5.12)"/><path class="cls-5" d="M74,14.84a32.59,32.59,0,0,1-.09,3.51c-0.1.94-.27,1.82-0.33,2.16s0.51,0.25,1.12.28,0.86,0.16.9-.35,0.16-1.8.22-2.69,0.06-2.41.06-2.8-0.06-.32-0.74-0.32S74,14.58,74,14.84h0Z" transform="translate(-5.12 -5.12)"/><path class="cls-4" d="M52.81,14.87a0.18,0.18,0,1,1,.34.12c-0.19.55-1.58,4-3,7.43s-2.79,6.73-3.23,7.73A0.18,0.18,0,0,1,46.58,30c1.18-3.38-.63-1.25.74-4.58a78.71,78.71,0,0,0,5.49-10.54h0Z" transform="translate(-5.12 -5.12)"/><path class="cls-4" d="M83.73,14.67a0.18,0.18,0,0,1,.33-0.13c0.12,0.32.41,1.17,0.81,2.34a41.63,41.63,0,0,0,3.34,7.18c2.08,2.86.13,2.49,2.07,7a0.18,0.18,0,0,1-.3.2c-1.26-1.89-4-10.07-5.45-14.23-0.4-1.18-.69-2-0.8-2.33h0Z" transform="translate(-5.12 -5.12)"/><path class="cls-2" d="M61.56,15.67a23.38,23.38,0,0,0-.11,2.45c0,0.77-.15,2.51-0.11,2.84s0,0.32.64,0.37,0.8,0.17.77-.3,0-2.11,0-2.92a7.23,7.23,0,0,1,.13-2.21c0.19-.32,0-0.34-0.54-0.37s-0.75-.06-0.8.15h0Z" transform="translate(-5.12 -5.12)"/><path class="cls-2" d="M74.23,15.12c0,0.32,0,2.16-.1,3s-0.2,1.72-.25,2,0.15,0.23.67,0.27,0.72,0.15.75-.33,0.13-1.71.18-2.55,0.05-2,.05-2.38-0.05-.3-0.62-0.3-0.69-.05-0.69.2h0Z" transform="translate(-5.12 -5.12)"/><path class="cls-6" d="M53.28,15.1a0.18,0.18,0,0,1,.34.12c-0.19.55-1.58,4-3,7.43s-2.79,6.73-3.23,7.73A0.18,0.18,0,1,1,47,30.23c0.44-1,1.86-4.38,3.23-7.72s2.81-6.87,3-7.41h0Z" transform="translate(-5.12 -5.12)"/><path class="cls-6" d="M83.09,14.79a0.18,0.18,0,0,1,.33-0.13c0.12,0.32.41,1.17,0.81,2.34,1.41,4.15,4.18,12.3,5.41,14.15a0.18,0.18,0,1,1-.3.2c-1.26-1.89-4-10.07-5.45-14.23-0.4-1.18-.69-2-0.8-2.33h0Z" transform="translate(-5.12 -5.12)"/></svg>