<svg id="Layer_1" data-name="Layer 1" xmlns="http://www.w3.org/2000/svg" viewBox="0 0 126.67 126.67"><defs><style>.cls-1{fill:#ebf0c7;}.cls-2{fill:#665747;}.cls-2,.cls-3,.cls-4{fill-rule:evenodd;}.cls-3{fill:#b09678;}.cls-4{fill:#9c856e;}.cls-5{fill:#b89e82;}</style></defs><title>pantsw</title><circle class="cls-1" cx="63.33" cy="63.33" r="63.33"/><path class="cls-2" d="M51.6,15.05c1.85-.19,10.86-0.12,16.35-0.43S86,13.45,87,13.51s-9.19,2.59-17.58,2.84-14.87,0-17.83-1.3h0Z" transform="translate(-5.12 -5.12)"/><path class="cls-3" d="M50.7,16.54c0,2.94-2,9.47-1.53,22s2.06,31.18,1.45,33.92,0.07,4.43-.54,6.41-0.91,5.78-1.67,7.61S46.8,89.88,47.1,97.49s-0.22,6.83.08,10.63-1.36,4.34-.59,6-1,3.51.75,6.16c1.38,2.15,2.61,3.42,5.5,3.12s2.47-3.12,3.19-5.17-1.45-1.56.23-3.4c0.65-.71-0.53-2.08-0.05-2.82,0.89-1.38,1.32-2.41.66-3.9-0.59-1.34,0-2,.42-3.7,0.3-1.36.23-3.64,0.78-5.28,1.22-3.65,2.23-8.91,1.92-11.8s2.74-5.63,3.5-15.22S65,54,66.21,49.15s2.2-10.89,3.36-12,1.81-1.66,2,2.6,1.07,18.11.62,25.12c-0.38,5.79,1,10.08.85,15.25S71.69,90.55,72,93.89s0.91,8.07.3,10.5-0.3,3.5-.46,5.63-2.28,3.5-1.07,6.54-0.17,5.52,4.15,5.88c2.41,0.2,4.07-.08,4-1.7-0.09-1.38,1.16-2.21,1-3-0.32-1.7,1.83-2.74.91-6.39s1.78-3.35,1.07-5.63,0.59-2.28.76-6.7S84.78,85.68,84.17,77s2-19.48,3.2-27.4S91.85,32.19,90,22.82,88.51,13,86.32,13.63s-8.79,1.11-16.76,1.58a107.39,107.39,0,0,1-15.33,0c-2.57-.28-3.51-0.51-3.53,1.34h0Z" transform="translate(-5.12 -5.12)"/><path class="cls-4" d="M90.38,26a26.52,26.52,0,0,1-6.29-1.35c-2.45-1.07-3.9-4.68-3.9-4.68a17.73,17.73,0,0,0,4.34,3.84A35.26,35.26,0,0,0,90.38,26Z" transform="translate(-5.12 -5.12)"/><path class="cls-5" d="M88.79,17.81a0.11,0.11,0,0,0,0-.22H88.54a0.11,0.11,0,0,0,0,.22h0.22Zm-0.9.1a0.11,0.11,0,0,0,0-.22H87.65a0.11,0.11,0,0,0,0,.22h0.22ZM87,18a0.11,0.11,0,0,0,0-.22H86.75a0.11,0.11,0,0,0,0,.22H87Zm-0.9.1a0.11,0.11,0,0,0,0-.22H85.85a0.11,0.11,0,0,0,0,.22H86.1Zm-0.9.1a0.11,0.11,0,0,0,0-.22H85a0.11,0.11,0,0,0,0,.22H85.2Zm-0.9.1a0.11,0.11,0,0,0,0-.22H84.06a0.11,0.11,0,0,0,0,.22h0.22Zm-0.9.09a0.11,0.11,0,0,0,0-.22H83.16a0.11,0.11,0,0,0,0,.22h0.22Zm-0.9.09a0.11,0.11,0,0,0,0-.22H82.26a0.11,0.11,0,0,0,0,.22h0.22Zm-0.9.09a0.11,0.11,0,0,0,0-.22H81.36a0.11,0.11,0,0,0,0,.22h0.22Zm-0.9.09a0.11,0.11,0,0,0,0-.22H80.47a0.11,0.11,0,0,0,0,.22h0.22Zm-0.9.09a0.11,0.11,0,0,0,0-.22H79.57a0.11,0.11,0,0,0,0,.22h0.22Zm-0.9.08a0.11,0.11,0,1,0,0-.22H78.67a0.11,0.11,0,1,0,0,.22h0.22Zm-0.9.08a0.11,0.11,0,1,0,0-.22H77.77a0.11,0.11,0,1,0,0,.22H78Zm-0.9.08a0.11,0.11,0,0,0,0-.22H76.87a0.11,0.11,0,0,0,0,.22h0.22Zm-0.9.08a0.11,0.11,0,0,0,0-.22H76a0.11,0.11,0,0,0,0,.22h0.22Zm-0.9.07a0.11,0.11,0,0,0,0-.22H75.07a0.11,0.11,0,0,0,0,.22h0.23Zm-0.9.07a0.11,0.11,0,0,0,0-.22H74.18a0.11,0.11,0,0,0,0,.22h0.22Zm-0.9.07a0.11,0.11,0,0,0,0-.23H73.28a0.11,0.11,0,0,0,0,.23h0.23Zm-0.9.07a0.11,0.11,0,0,0,0-.23H72.38a0.11,0.11,0,0,0,0,.23h0.23Zm-0.9.06a0.11,0.11,0,0,0,0-.23H71.48a0.11,0.11,0,0,0,0,.22h0.22Zm-0.9.06a0.11,0.11,0,0,0,0-.23H70.58a0.11,0.11,0,0,0,0,.23h0.23Zm-0.9.05a0.11,0.11,0,0,0,0-.23H69.68a0.11,0.11,0,0,0,0,.23h0.23Zm-0.9.05a0.11,0.11,0,0,0,0-.23H68.77a0.11,0.11,0,0,0,0,.23H69Zm-0.9,0a0.11,0.11,0,0,0,0-.23H67.87a0.11,0.11,0,0,0,0,.23h0.23Zm-0.9,0a0.11,0.11,0,0,0,0-.23H67a0.11,0.11,0,0,0,0,.23h0.23Zm-0.9,0a0.11,0.11,0,0,0,0-.23H66.07a0.11,0.11,0,0,0,0,.23h0.23Zm-0.9,0a0.11,0.11,0,0,0,0-.23H65.17a0.11,0.11,0,0,0,0,.23H65.4Zm-0.9,0a0.11,0.11,0,0,0,0-.23H64.27a0.11,0.11,0,0,0,0,.23H64.5Zm-0.9,0a0.11,0.11,0,0,0,0-.23H63.37a0.11,0.11,0,0,0,0,.23H63.6Zm-0.9,0a0.11,0.11,0,0,0,0-.23H62.47a0.11,0.11,0,0,0,0,.23h0.23Zm-0.9,0a0.11,0.11,0,0,0,0-.23H61.56a0.11,0.11,0,0,0,0,.23h0.23Zm-0.9,0a0.11,0.11,0,0,0,0-.23H60.66a0.11,0.11,0,0,0,0,.23h0.23Zm-0.9,0a0.11,0.11,0,0,0,0-.23H59.76a0.11,0.11,0,0,0,0,.23H60Zm-0.9,0a0.11,0.11,0,0,0,0-.23H58.86a0.11,0.11,0,0,0,0,.23h0.23Zm-0.9,0a0.11,0.11,0,0,0,0-.23H58a0.11,0.11,0,0,0,0,.23h0.23Zm-0.9,0a0.11,0.11,0,0,0,0-.23H57.06a0.11,0.11,0,0,0,0,.23h0.23Zm-0.9,0a0.11,0.11,0,0,0,0-.23H56.16a0.11,0.11,0,0,0,0,.23h0.23Zm-0.9-.06a0.11,0.11,0,0,0,0-.22H55.26a0.11,0.11,0,0,0,0,.22h0.23Zm-0.9-.08a0.11,0.11,0,0,0,0-.22H54.37a0.11,0.11,0,0,0,0,.22h0.22Zm-0.9-.09a0.11,0.11,0,0,0,0-.22H53.47a0.11,0.11,0,0,0,0,.22h0.22Zm-0.9-.11a0.11,0.11,0,0,0,0-.22H52.58a0.11,0.11,0,0,0,0,.22h0.22Zm-0.9-.13a0.11,0.11,0,0,0,0-.22H51.69a0.11,0.11,0,0,0,0,.22h0.22ZM51,19.09a0.11,0.11,0,0,0,0-.22H50.79a0.11,0.11,0,0,0,0,.22H51Z" transform="translate(-5.12 -5.12)"/><path class="cls-5" d="M88.79,18.72a0.11,0.11,0,0,0,0-.22H88.54a0.11,0.11,0,0,0,0,.22h0.22Zm-0.9.1a0.11,0.11,0,0,0,0-.22H87.65a0.11,0.11,0,0,0,0,.22h0.22Zm-0.9.1a0.11,0.11,0,0,0,0-.22H86.75a0.11,0.11,0,0,0,0,.22H87Zm-0.9.1a0.11,0.11,0,0,0,0-.22H85.85a0.11,0.11,0,0,0,0,.22H86.1Zm-0.9.1a0.11,0.11,0,0,0,0-.22H85a0.11,0.11,0,0,0,0,.22H85.2Zm-0.9.1a0.11,0.11,0,0,0,0-.22H84.06a0.11,0.11,0,0,0,0,.22h0.22Zm-0.9.09a0.11,0.11,0,0,0,0-.22H83.16a0.11,0.11,0,0,0,0,.22h0.22Zm-0.9.09a0.11,0.11,0,0,0,0-.22H82.26a0.11,0.11,0,0,0,0,.22h0.22Zm-0.9.09a0.11,0.11,0,0,0,0-.22H81.36a0.11,0.11,0,0,0,0,.22h0.22Zm-0.9.09a0.11,0.11,0,0,0,0-.22H80.47a0.11,0.11,0,0,0,0,.22h0.22Zm-0.9.09a0.11,0.11,0,0,0,0-.22H79.57a0.11,0.11,0,0,0,0,.22h0.22Zm-0.9.08a0.11,0.11,0,1,0,0-.22H78.67a0.11,0.11,0,1,0,0,.22h0.22Zm-0.9.08a0.11,0.11,0,0,0,0-.22H77.77a0.11,0.11,0,1,0,0,.22H78Zm-0.9.08a0.11,0.11,0,0,0,0-.22H76.87a0.11,0.11,0,0,0,0,.22h0.22Zm-0.9.08a0.11,0.11,0,0,0,0-.23H76A0.11,0.11,0,0,0,76,20h0.22Zm-0.9.07a0.11,0.11,0,0,0,0-.22H75.07a0.11,0.11,0,0,0,0,.22h0.23Zm-0.9.07a0.11,0.11,0,0,0,0-.22H74.18a0.11,0.11,0,0,0,0,.22h0.22Zm-0.9.07a0.11,0.11,0,0,0,0-.23H73.28a0.11,0.11,0,0,0,0,.23h0.23Zm-0.9.07a0.11,0.11,0,0,0,0-.23H72.38a0.11,0.11,0,0,0,0,.23h0.23Zm-0.9.06a0.11,0.11,0,0,0,0-.23H71.48a0.11,0.11,0,0,0,0,.23h0.22Zm-0.9.06a0.11,0.11,0,0,0,0-.23H70.58a0.11,0.11,0,0,0,0,.23h0.23Zm-0.9.05a0.11,0.11,0,0,0,0-.23H69.68a0.11,0.11,0,0,0,0,.23h0.23Zm-0.9.05a0.11,0.11,0,0,0,0-.23H68.77a0.11,0.11,0,0,0,0,.23H69Zm-0.9,0a0.11,0.11,0,0,0,0-.23H67.87a0.11,0.11,0,0,0,0,.23h0.23Zm-0.9,0a0.11,0.11,0,0,0,0-.23H67a0.11,0.11,0,0,0,0,.23h0.23Zm-0.9,0a0.11,0.11,0,0,0,0-.23H66.07a0.11,0.11,0,0,0,0,.23h0.23Zm-0.9,0a0.11,0.11,0,0,0,0-.23H65.17a0.11,0.11,0,0,0,0,.23H65.4Zm-0.9,0a0.11,0.11,0,0,0,0-.23H64.27a0.11,0.11,0,0,0,0,.23H64.5Zm-0.9,0a0.11,0.11,0,0,0,0-.23H63.37a0.11,0.11,0,0,0,0,.23H63.6Zm-0.9,0a0.11,0.11,0,0,0,0-.23H62.47a0.11,0.11,0,0,0,0,.23h0.23Zm-0.9,0a0.11,0.11,0,0,0,0-.23H61.56a0.11,0.11,0,0,0,0,.23h0.23Zm-0.9,0a0.11,0.11,0,0,0,0-.23H60.66a0.11,0.11,0,0,0,0,.23h0.23Zm-0.9,0a0.11,0.11,0,0,0,0-.23H59.76a0.11,0.11,0,0,0,0,.23H60Zm-0.9,0a0.11,0.11,0,0,0,0-.23H58.86a0.11,0.11,0,0,0,0,.23h0.23Zm-0.9,0a0.11,0.11,0,0,0,0-.23H58a0.11,0.11,0,0,0,0,.23h0.23Zm-0.9,0a0.11,0.11,0,0,0,0-.23H57.06a0.11,0.11,0,0,0,0,.23h0.23Zm-0.9,0a0.11,0.11,0,0,0,0-.23H56.16a0.11,0.11,0,0,0,0,.23h0.23Zm-0.9-.06a0.11,0.11,0,0,0,0-.23H55.26a0.11,0.11,0,0,0,0,.22h0.23Zm-0.9-.08a0.11,0.11,0,0,0,0-.22H54.37a0.11,0.11,0,0,0,0,.22h0.22Zm-0.9-.09a0.11,0.11,0,0,0,0-.22H53.47a0.11,0.11,0,0,0,0,.22h0.22Zm-0.9-.11a0.11,0.11,0,0,0,0-.22H52.58a0.11,0.11,0,0,0,0,.22h0.22Zm-0.9-.13a0.11,0.11,0,0,0,0-.22H51.69a0.11,0.11,0,0,0,0,.22h0.22ZM51,20a0.11,0.11,0,0,0,0-.22H50.79a0.11,0.11,0,0,0,0,.22H51Z" transform="translate(-5.12 -5.12)"/><path class="cls-5" d="M59,20.63a0.11,0.11,0,0,0-.22,0h0a0.11,0.11,0,0,0,.22,0h0ZM49.4,27.32V27.4a0.11,0.11,0,0,0,.12.08h0.22a0.11,0.11,0,0,0,0-.22H49.49a0.11,0.11,0,0,0-.09.06h0Zm1-.17a0.11,0.11,0,0,0,0,.22h0.22a0.11,0.11,0,0,0,0-.22H50.39Zm0.9-.11a0.11,0.11,0,0,0,0,.22h0.22a0.11,0.11,0,0,0,0-.22H51.28Zm0.89-.12a0.11,0.11,0,0,0,0,.22h0.22a0.11,0.11,0,0,0,0-.22H52.17Zm0.89-.14a0.11,0.11,0,0,0,0,.22h0.22a0.11,0.11,0,0,0,0-.22H53.06Zm0.88-.18a0.11,0.11,0,0,0,.05.22h0.22a0.11,0.11,0,0,0-.06-0.22H53.94Zm0.86-.25a0.11,0.11,0,0,0,.08.21h0.21A0.11,0.11,0,0,0,55,26.28H54.8ZM55.6,26a0.11,0.11,0,0,0,.11.19h0l0,0,0,0,0,0,0,0,0,0,0,0h0a0.11,0.11,0,0,0-.12-0.19h0l0,0,0,0,0,0,0,0,0,0,0,0h0Zm0.72-.51a0.11,0.11,0,0,0,.14.17h0l0,0,0,0,0,0,0,0,0,0,0,0,0,0a0.11,0.11,0,0,0-.15-0.17h0l0,0,0,0,0,0,0,0,0,0,0,0,0,0h0Zm0.62-.63v0a0.11,0.11,0,0,0,.18.13l0,0,0,0,0,0,0,0,0,0,0,0,0,0h0a0.11,0.11,0,0,0-.18-0.14h0l0,0,0,0,0,0,0,0,0,0,0,0,0,0h0Zm0.53-.71a0.11,0.11,0,0,0,.19.12h0l0,0,0,0,0,0,0,0,0,0,0,0,0,0h0A0.11,0.11,0,0,0,57.58,24h0l0,0,0,0,0,0,0,0,0,0,0,0,0,0h0Zm0.43-.78a0.11,0.11,0,0,0,.2.1v-0.2h0A0.11,0.11,0,0,0,58,23.16h0v0.2h0Zm0.34-.82a0.11,0.11,0,0,0,.21.08h0V22.4a0.11,0.11,0,0,0-.21-0.07v0.21h0Zm0.27-.85a0.11,0.11,0,0,0,.22.06h0V21.53h0a0.11,0.11,0,0,0-.22-0.05h0v0.2h0Z" transform="translate(-5.12 -5.12)"/><path class="cls-5" d="M79.37,19.58a0.11,0.11,0,0,0-.22,0H79.2a0.11,0.11,0,0,0,.22-0.06h0Zm11.12,7.48V26.83H90.41a0.11,0.11,0,0,0,0,.22h0.11Zm-0.78-.11a0.11,0.11,0,0,0,0-.22H89.51a0.11,0.11,0,0,0,0,.22H89.7Zm-0.89-.14a0.11,0.11,0,0,0,0-.22H88.62a0.11,0.11,0,0,0,0,.22h0.22Zm-0.89-.15a0.11,0.11,0,0,0,0-.22H87.74a0.11,0.11,0,0,0,0,.22h0.22ZM87,26.49a0.11,0.11,0,0,0,0-.22H86.85a0.11,0.11,0,0,0,0,.22H87Zm-0.89-.18a0.11,0.11,0,0,0,0-.22H86a0.11,0.11,0,0,0-.05.22h0.22Zm-0.88-.21a0.11,0.11,0,0,0,.06-0.22H85.1A0.11,0.11,0,1,0,85,26h0.22Zm-0.87-.25a0.11,0.11,0,0,0,.07-0.21H84.24a0.11,0.11,0,0,0-.07.21h0.22Zm-0.86-.33a0.11,0.11,0,0,0,.1-0.2h-0.2a0.11,0.11,0,0,0-.15,0,0.11,0.11,0,0,0,0,.16h0.21Zm-0.79-.47a0.11,0.11,0,0,0,.13-0.18h0l0,0,0,0,0,0,0,0,0,0,0,0h0a0.11,0.11,0,0,0-.14.18h0l0,0,0,0,0,0,0,0,0,0,0,0h0ZM82,24.47a0.11,0.11,0,0,0,.15-0.16h0l0,0,0,0,0,0,0,0,0,0,0,0h0a0.11,0.11,0,0,0-.16.16h0l0,0,0,0,0,0,0,0,0,0,0,0h0Zm-0.64-.66a0.11,0.11,0,0,0,.17-0.15h0l0,0,0,0,0,0,0,0,0,0,0,0v0a0.11,0.11,0,0,0-.18.14h0v0l0,0,0,0,0,0,0,0,0,0,0,0h0Zm-0.57-.72A0.11,0.11,0,0,0,81,23l0,0,0,0,0,0,0,0,0,0,0,0,0,0a0.11,0.11,0,0,0-.19.12h0l0,0,0,0,0,0,0,0,0,0,0,0,0,0h0Zm-0.5-.76a0.11,0.11,0,0,0,.19-0.12v0l0,0,0,0,0,0,0,0,0,0,0,0h0a0.11,0.11,0,0,0-.2.11h0l0,0,0,0,0,0,0,0,0,0,0,0v0h0Zm-0.44-.8a0.11,0.11,0,0,0,.2-0.1h0V21.24a0.11,0.11,0,0,0-.2.1v0.19h0Zm-0.38-.83a0.11,0.11,0,0,0,.21-0.09h0V20.43h0a0.11,0.11,0,0,0-.21.08h0V20.7h0Z" transform="translate(-5.12 -5.12)"/><path class="cls-5" d="M80.1,19.59a0.11,0.11,0,0,0-.21.08v0.21h0a0.11,0.11,0,0,0,.21-0.08h0v-0.2h0Zm10,6.58a0.11,0.11,0,0,0,0-.22H89.88a0.11,0.11,0,0,0,0,.22h0.22ZM89.17,26a0.11,0.11,0,0,0,0-.22H89a0.11,0.11,0,0,0,0,.22h0.22Zm-0.89-.14a0.11,0.11,0,0,0,0-.22H88.1a0.11,0.11,0,0,0,0,.22h0.22Zm-0.89-.16a0.11,0.11,0,0,0,0-.22H87.21a0.11,0.11,0,0,0,0,.22h0.22Zm-0.89-.18a0.11,0.11,0,0,0,0-.22H86.33a0.11,0.11,0,0,0,0,.22H86.5Zm-0.88-.21a0.11,0.11,0,0,0,.06-0.22H85.46a0.11,0.11,0,0,0-.06.22h0.22Zm-0.87-.25a0.11,0.11,0,0,0,.07-0.21H84.6a0.11,0.11,0,0,0-.07.21h0.22Zm-0.86-.33a0.11,0.11,0,0,0,.1-0.2H83.79a0.11,0.11,0,0,0-.11.2h0.21Zm-0.79-.48a0.11,0.11,0,0,0,.13-0.18h0l0,0,0,0,0,0,0,0,0,0,0,0,0,0h0a0.12,0.12,0,0,0-.13,0,0.11,0.11,0,0,0,0,.18l0,0,0,0,0,0,0,0,0,0,0,0,0,0,0,0h0Zm-0.7-.59a0.11,0.11,0,0,0,.16-0.16h0l0,0,0,0,0,0,0,0,0,0,0,0,0,0h0a0.11,0.11,0,0,0-.17.15h0l0,0,0,0,0,0,0,0,0,0,0,0,0,0h0ZM81.78,23A0.11,0.11,0,0,0,82,22.9v0l0,0,0,0,0,0,0,0,0,0,0,0,0,0,0,0h0a0.11,0.11,0,1,0-.18.14h0l0,0,0,0,0,0,0,0,0,0,0,0,0,0,0,0h0Zm-0.55-.73a0.11,0.11,0,0,0,.19-0.13h0V22h0l0,0a0.11,0.11,0,0,0-.14.17h0v0.17h0Zm-0.48-.77a0.11,0.11,0,0,0,.2-0.11h0V21.22h0a0.11,0.11,0,0,0-.2.11h0v0.19h0Zm-0.42-.81a0.11,0.11,0,0,0,.2-0.1v-0.2h0a0.11,0.11,0,0,0-.21.09h0v0.2h0Z" transform="translate(-5.12 -5.12)"/><path class="cls-5" d="M72.33,20.18a0.11,0.11,0,0,0-.22,0v0.23a0.11,0.11,0,0,0,.22,0V20.18h0ZM69.22,31.07a0.11,0.11,0,0,0,0,.22h0.21a0.11,0.11,0,0,0,0-.22H69.22Zm0.87-.17a0.11,0.11,0,0,0,.06.22h0.23a0.11,0.11,0,0,0-.08-0.21H70.09Zm0.77-.37a0.11,0.11,0,0,0,0,.12,0.11,0.11,0,0,0,.18.07h0.18A0.11,0.11,0,0,0,71,30.4H70.86Zm0.66-.59a0.11,0.11,0,0,0,.16.16h0.06V30l0,0h0a0.11,0.11,0,0,0-.16-0.16h0v0.06H71.52Zm0.57-.66a0.11,0.11,0,0,0,.19.11h0V29.19h0a0.11,0.11,0,0,0-.21-0.09h0v0.19h0Zm0.31-.81a0.11,0.11,0,0,0,.22.05h0V28.31h0a0.11,0.11,0,0,0-.22,0h0v0.2h0Zm0.15-.87a0.11,0.11,0,0,0,.22,0V27.39a0.11,0.11,0,0,0-.22,0V27.6h0Zm0.06-.89a0.11,0.11,0,0,0,.23,0V26.49a0.11,0.11,0,0,0-.23,0v0.22h0Zm0-.9a0.11,0.11,0,0,0,.23,0h0V25.58a0.11,0.11,0,0,0-.23,0V25.8h0Zm0-.9a0.11,0.11,0,0,0,.23,0h0V24.67a0.11,0.11,0,0,0-.23,0V24.9h0ZM72.52,24a0.11,0.11,0,0,0,.22,0V23.77a0.11,0.11,0,0,0-.22,0V24h0Zm-0.08-.9a0.11,0.11,0,0,0,.22,0h0V22.88h0a0.11,0.11,0,0,0-.22,0h0v0.21h0Zm-0.1-.9a0.11,0.11,0,0,0,.22,0V22h0a0.11,0.11,0,0,0-.22,0h0v0.21h0Zm-0.11-.9a0.11,0.11,0,0,0,.22,0h0v-0.2h0a0.11,0.11,0,0,0-.22,0h0v0.2h0Z" transform="translate(-5.12 -5.12)"/><path class="cls-5" d="M73,20.22a0.11,0.11,0,0,0-.22,0v0.21h0a0.11,0.11,0,0,0,.22,0h0V20.22h0ZM69.54,31.86a0.11,0.11,0,0,0,0,.23h0.23a0.11,0.11,0,0,0,0-.22H69.54Zm0.86-.15a0.11,0.11,0,0,0,.07.22h0.22a0.11,0.11,0,0,0-.08-0.21H70.4Zm0.79-.37a0.11,0.11,0,0,0,.12.19h0.19a0.11,0.11,0,0,0-.13-0.19H71.19Zm0.7-.54A0.11,0.11,0,0,0,72,31h0.08l0,0h0l0,0,0,0,0,0h0a0.11,0.11,0,0,0-.14-0.18l0,0H71.89Zm0.61-.63a0.11,0.11,0,0,0,.18.13h0l0,0,0,0,0,0,0,0,0,0,0,0V30.11h0a0.11,0.11,0,0,0-.2-0.11h0v0.17h0Zm0.37-.78a0.11,0.11,0,0,0,.22.07V29.24a0.11,0.11,0,0,0-.22-0.06v0.21h0Zm0.2-.86a0.11,0.11,0,0,0,.22,0V28.34a0.11,0.11,0,0,0-.22,0v0.22h0Zm0.11-.89a0.11,0.11,0,1,0,.22,0h0V27.44a0.11,0.11,0,0,0-.22,0v0.22h0Zm0.06-.89a0.11,0.11,0,0,0,.23,0V26.53a0.11,0.11,0,0,0-.23,0v0.22h0Zm0-.9a0.11,0.11,0,0,0,.23,0V25.64h0a0.11,0.11,0,0,0-.23,0h0v0.21h0Zm0-.9a0.11,0.11,0,0,0,.23,0V24.72a0.11,0.11,0,0,0-.23,0V25h0Zm0-.9a0.11,0.11,0,0,0,.23,0h0V23.81a0.11,0.11,0,0,0-.22,0V24h0Zm-0.06-.9a0.11,0.11,0,0,0,.22,0h0V22.91a0.11,0.11,0,0,0-.22,0v0.22h0Zm-0.08-.9a0.11,0.11,0,0,0,.22,0V22A0.11,0.11,0,0,0,73,22v0.22h0ZM73,21.37a0.11,0.11,0,0,0,.22,0h0V21.11a0.11,0.11,0,0,0-.22,0v0.21h0Z" transform="translate(-5.12 -5.12)"/><path class="cls-5" d="M69.38,36.46a0.11,0.11,0,0,0-.06-0.22H69.09a0.11,0.11,0,0,0,.11.2h0.18ZM60.6,84.18l0.15-.39a0.1,0.1,0,0,0-.07.07h0l0,0,0,0,0,0,0,0,0,0a0.11,0.11,0,0,0,0,.12h0Zm0.32-.86L61.07,83A0.11,0.11,0,0,0,61,83l0,0,0,0,0,0,0,0v0a0.11,0.11,0,0,0,0,.09h0Zm0.31-.83,0.15-.41a0.12,0.12,0,0,0-.11.08v0l0,0.05,0,0.05,0,0.05v0a0.11,0.11,0,0,0,0,.08l0,0h0Zm0.3-.84,0.15-.42a0.11,0.11,0,0,0-.17.07h0l0,0.06,0,0.06,0,0.06v0a0.11,0.11,0,0,0,.08.14h0Zm0.3-.88,0.11-.36a0.11,0.11,0,0,0-.22,0v0.22a0.11,0.11,0,0,0,.15.13h0Zm2.44-17.95,0-.29a0.11,0.11,0,0,0-.22,0v0.22a0.11,0.11,0,0,0,.22,0h0ZM64.35,62l0-.34a0.11,0.11,0,0,0-.22,0v0.21h0a0.11,0.11,0,0,0,.21.07h0Zm0.09-.88,0-.36a0.11,0.11,0,0,0-.21,0V61a0.11,0.11,0,0,0,.2.09h0Zm0.09-.89,0-.37a0.11,0.11,0,0,0-.2.05v0.22a0.11,0.11,0,0,0,.19.1h0Zm0.1-.89,0-.38a0.11,0.11,0,0,0-.2.06h0V59.2a0.11,0.11,0,0,0,.19.1h0Zm0.1-.9,0-.38a0.11,0.11,0,0,0-.2.06V58.3a0.11,0.11,0,0,0,.19.1h0Zm0.1-.9,0-.37a0.11,0.11,0,0,0-.21,0V57.4a0.11,0.11,0,0,0,.19.1h0Zm0.11-.91,0-.35a0.11,0.11,0,0,0-.22,0V56.5a0.11,0.11,0,0,0,.2.09h0Zm0.12-.92,0-.28a0.11,0.11,0,0,0-.23,0v0.22a0.11,0.11,0,0,0,.21.06h0Zm-3.18,24.1a0.11,0.11,0,0,0,.22,0V79.6h0a0.11,0.11,0,0,0-.22,0h0v0.22h0Zm0.19-.88a0.11,0.11,0,0,0,.22,0V78.71a0.11,0.11,0,0,0-.22,0v0.22h0ZM62.24,78a0.11,0.11,0,0,0,.22,0V77.82a0.11,0.11,0,0,0-.22,0V78h0Zm0.16-.89a0.11,0.11,0,0,0,.22,0h0v-0.2h0a0.11,0.11,0,0,0-.22,0h0V77.1h0Zm0.15-.89a0.11,0.11,0,0,0,.22,0V76a0.11,0.11,0,0,0-.22,0v0.22h0Zm0.14-.89a0.11,0.11,0,0,0,.22,0V75.15h0a0.11,0.11,0,0,0-.22,0h0v0.22h0Zm0.13-.89a0.11,0.11,0,0,0,.22,0h0V74.26a0.11,0.11,0,0,0-.22,0v0.22h0Zm0.12-.89a0.11,0.11,0,0,0,.22,0V73.36a0.11,0.11,0,0,0-.22,0v0.22h0Zm0.11-.89a0.11,0.11,0,0,0,.22,0V72.46a0.11,0.11,0,0,0-.22,0v0.22h0Zm0.1-.9a0.11,0.11,0,0,0,.22,0V71.56a0.11,0.11,0,0,0-.22,0v0.22h0Zm0.09-.9a0.11,0.11,0,1,0,.22,0h0V70.66a0.11,0.11,0,0,0-.22,0v0.22h0Zm0.08-.9a0.11,0.11,0,1,0,.22,0V69.77h0a0.11,0.11,0,1,0-.22,0h0V70h0Zm0.08-.9a0.11,0.11,0,0,0,.22,0h0V68.87a0.11,0.11,0,0,0-.22,0v0.22h0Zm0.09-.9a0.11,0.11,0,0,0,.22,0V68a0.11,0.11,0,0,0-.22,0v0.22h0Zm0.09-.9a0.11,0.11,0,0,0,.22,0V67.07a0.11,0.11,0,0,0-.22,0v0.22h0Zm0.09-.9a0.11,0.11,0,0,0,.22,0h0V66.17a0.11,0.11,0,0,0-.22,0v0.21h0Zm0.09-.9a0.11,0.11,0,0,0,.22,0V65.28a0.11,0.11,0,0,0-.22,0v0.22h0Zm0.09-.9a0.11,0.11,0,0,0,.22,0V64.38a0.11,0.11,0,0,0-.22,0v0.22h0Zm0.09-.9a0.11,0.11,0,0,0,.22,0V63.48a0.11,0.11,0,0,0-.22,0v0.22h0Zm1-9a0.11,0.11,0,0,0,.22,0V54.51a0.11,0.11,0,0,0-.22,0v0.22h0Zm0.11-.9a0.11,0.11,0,0,0,.22,0V53.62a0.11,0.11,0,0,0-.22,0v0.22h0Zm0.11-.9a0.11,0.11,0,0,0,.22,0V52.72a0.11,0.11,0,0,0-.22,0v0.22h0Zm0.11-.9a0.11,0.11,0,0,0,.22,0V51.83a0.11,0.11,0,0,0-.22,0V52h0Zm0.11-.9a0.11,0.11,0,0,0,.22,0V50.93a0.11,0.11,0,0,0-.22,0v0.22h0Zm0.11-.9a0.11,0.11,0,0,0,.22,0V50a0.11,0.11,0,0,0-.22,0v0.22h0Zm0.12-.9a0.11,0.11,0,0,0,.22,0V49.14a0.11,0.11,0,0,0-.22,0v0.22h0Zm0.13-.89a0.11,0.11,0,0,0,.22,0V48.25a0.11,0.11,0,0,0-.22,0v0.22h0Zm0.13-.89a0.11,0.11,0,0,0,.22,0h0V47.36a0.11,0.11,0,0,0-.22,0v0.21h0ZM66,46.65a0.11,0.11,0,0,0,.22,0V46.47h0a0.11,0.11,0,0,0-.22,0h0v0.22h0Zm0.14-.89a0.11,0.11,0,0,0,.22,0V45.57a0.11,0.11,0,0,0-.22,0v0.22h0Zm0.14-.89a0.11,0.11,0,0,0,.22,0h0V44.69a0.11,0.11,0,0,0-.22,0v0.21h0ZM66.44,44a0.11,0.11,0,0,0,.22,0V43.8h0a0.11,0.11,0,0,0-.22,0h0V44h0Zm0.16-.89a0.11,0.11,0,0,0,.22,0h0V42.91a0.11,0.11,0,0,0-.22,0v0.22h0Zm0.17-.89a0.11,0.11,0,0,0,.22,0V42a0.11,0.11,0,0,0-.22,0V42.2h0ZM67,41.32a0.11,0.11,0,0,0,.22,0h0V41.15A0.11,0.11,0,0,0,67,41.1v0.21h0Zm0.21-.88a0.11,0.11,0,0,0,.22.06V40.27a0.11,0.11,0,0,0-.22-0.06v0.22h0Zm0.23-.88a0.11,0.11,0,0,0,.22.06V39.41a0.11,0.11,0,0,0-.06-0.14,0.11,0.11,0,0,0-.15.07v0.22h0Zm0.27-.87a0.11,0.11,0,0,0,.21.07v0l0,0,0,0,0,0v0a0.11,0.11,0,0,0-.21-0.08h0l0,0,0,0,0,0,0,0v0h0ZM68,37.84a0.11,0.11,0,0,0,.21.09v0l0,0,0,0,0,0,0,0v0a0.11,0.11,0,0,0-.2-0.1l0,0,0,0,0,0,0,0,0,0v0h0ZM68.43,37a0.11,0.11,0,0,0,.19.12v0l0,0,0,0,0,0,0,0,0,0,0,0h0a0.11,0.11,0,0,0-.18-0.14h0l0,0,0,0,0,0,0,0,0,0,0,0v0h0Z" transform="translate(-5.12 -5.12)"/><path class="cls-2" d="M80,19.22a0.41,0.41,0,1,1-.41.41A0.41,0.41,0,0,1,80,19.22h0Z" transform="translate(-5.12 -5.12)"/><path class="cls-4" d="M71.85,17.35c1.25-.08,2.27,0,2.28.18s-1,.4-2.23.48-2.27,0-2.28-.18,1-.4,2.23-0.48h0Z" transform="translate(-5.12 -5.12)"/><path class="cls-4" d="M70.18,16.44A1.58,1.58,0,1,1,68.6,18a1.58,1.58,0,0,1,1.58-1.58h0Z" transform="translate(-5.12 -5.12)"/><path class="cls-2" d="M70.13,16.54a1.4,1.4,0,1,1-1.4,1.4,1.4,1.4,0,0,1,1.4-1.4h0Z" transform="translate(-5.12 -5.12)"/><path class="cls-4" d="M70.13,17.28a0.66,0.66,0,1,1-.66.66,0.66,0.66,0,0,1,.66-0.66h0Z" transform="translate(-5.12 -5.12)"/><path class="cls-4" d="M76.42,15.52c0.28,0.79,1.75,5.66,2.14,6.79s2.24,0.49,2-.47-1.7-5.65-2-6.57-2.17-.21-2.05.25h0Z" transform="translate(-5.12 -5.12)"/><path class="cls-3" d="M76.6,15.49c0.28,0.79,1.68,5.35,2.07,6.48s1.86,0.73,1.58-.23-1.59-5.37-1.84-6.26-2-.59-1.81,0h0Z" transform="translate(-5.12 -5.12)"/><path class="cls-5" d="M48.22,121.29a0.11,0.11,0,0,0-.08.21h0.23a0.11,0.11,0,0,0,.06-0.22H48.22Zm6.45,0.31a0.11,0.11,0,0,0,0-.22H54.41a0.11,0.11,0,0,0,0,.22h0.22Zm-0.89.15a0.11,0.11,0,0,0,0-.22H53.52a0.11,0.11,0,0,0,0,.22h0.22Zm-0.9.13a0.11,0.11,0,0,0,0-.22H52.63a0.11,0.11,0,0,0,0,.22h0.22ZM52,122a0.11,0.11,0,0,0,0-.23H51.74a0.11,0.11,0,0,0,0,.23H52Zm-0.91,0a0.11,0.11,0,0,0,0-.23H50.85a0.11,0.11,0,0,0,0,.23h0.23ZM50.16,122a0.11,0.11,0,0,0,0-.22H50a0.11,0.11,0,0,0,0,.22h0.23Zm-0.9-.15a0.11,0.11,0,0,0,0-.22H49.09a0.11,0.11,0,0,0-.05.22h0.22Z" transform="translate(-5.12 -5.12)"/><path class="cls-5" d="M71.63,119.69a0.11,0.11,0,0,0-.12.19h0.2a0.11,0.11,0,0,0,.11-0.19H71.63Zm7.14,1.19a0.11,0.11,0,0,0-.06-0.22H78.5a0.11,0.11,0,0,0,.06.22h0.22Zm-0.89.21a0.11,0.11,0,0,0,0-.22H77.62a0.11,0.11,0,0,0,0,.22h0.23Zm-0.91.11a0.11,0.11,0,0,0,0-.23H76.74a0.11,0.11,0,0,0,0,.23H77Zm-0.91,0a0.11,0.11,0,0,0,0-.23H75.85a0.11,0.11,0,0,0,0,.23h0.23Zm-0.91-.07a0.11,0.11,0,0,0,0-.22H75a0.11,0.11,0,0,0,0,.22h0.23Zm-0.9-.16a0.11,0.11,0,0,0,.05-0.22H74.09a0.11,0.11,0,0,0-.06.22h0.22Zm-0.88-.25a0.11,0.11,0,0,0,.07-0.21H73.24a0.11,0.11,0,0,0-.08.21h0.22Zm-0.85-.33a0.11,0.11,0,0,0,.09-0.21h-0.2a0.11,0.11,0,0,0-.1.2h0.21Z" transform="translate(-5.12 -5.12)"/><path class="cls-4" d="M68.48,15.27l-0.45,0v0.14c0,1.82-.07,4.48.64,5.9,0.42,0.84.42,4.54,0.41,8.18a66.09,66.09,0,0,0,.29,7.9L69.7,37a65.79,65.79,0,0,1-.17-7.53c0-3.7,0-7.45-.46-8.38-0.66-1.32-.62-3.92-0.59-5.69V15.27h0Z" transform="translate(-5.12 -5.12)"/><path class="cls-4" d="M49.49,26.34a15.34,15.34,0,0,0,5.45-.88C57.39,24.38,57.79,21,57.79,21s-1,2.88-3.22,3.87A25.84,25.84,0,0,1,49.49,26.34Z" transform="translate(-5.12 -5.12)"/><path class="cls-5" d="M57.95,20.63a0.11,0.11,0,0,0-.22,0h0a0.11,0.11,0,0,0,.22,0h0ZM50,26.37a0.11,0.11,0,0,0,0,.22h0.22a0.11,0.11,0,0,0,0-.22H50Zm0.9-.11a0.11,0.11,0,0,0,0,.22h0.22a0.11,0.11,0,0,0,0-.22H50.91Zm0.89-.12a0.11,0.11,0,0,0,0,.22h0.22a0.11,0.11,0,0,0,0-.22H51.8ZM52.69,26a0.11,0.11,0,0,0,0,.22H53a0.11,0.11,0,0,0,0-.22H52.69Zm0.88-.17a0.11,0.11,0,0,0,.05.22h0.22a0.11,0.11,0,0,0-.05-0.22H53.57Zm0.86-.24a0.11,0.11,0,0,0,.07.21h0.22a0.11,0.11,0,0,0-.08-0.21H54.43Zm0.81-.35a0.11,0.11,0,0,0,.11.2h0l0,0,0,0,0,0,0,0,0,0h0a0.11,0.11,0,0,0-.12-0.19h0l0,0,0,0,0,0,0,0,0,0h0Zm0.73-.5a0.11,0.11,0,0,0,.13.19h0l0,0,0,0,0,0,0,0,0,0,0,0,0,0h0a0.11,0.11,0,0,0-.15-0.17h0l0,0,0,0,0,0,0,0,0,0,0,0,0,0h0Zm0.62-.62a0.11,0.11,0,0,0,.17.15h0l0,0,0,0,0,0,0,0,0,0,0,0,0,0,0,0h0A0.11,0.11,0,0,0,56.72,24h0l0,0,0,0,0,0,0,0,0,0,0,0,0,0,0,0h0Zm0.48-.73a0.11,0.11,0,0,0,.18.13l0,0h0V23.3a0.11,0.11,0,0,0-.2-0.09v0.19h0Zm0.33-.82a0.11,0.11,0,0,0,.06.13,0.11,0.11,0,0,0,.15-0.07h0V22.44h0a0.11,0.11,0,0,0-.22-0.06h0v0.2h0Zm0.19-.86a0.11,0.11,0,0,0,.22,0h0V21.53h0a0.11,0.11,0,0,0-.22,0h0v0.21h0Z" transform="translate(-5.12 -5.12)"/><path class="cls-2" d="M57.93,20.18a0.41,0.41,0,1,1-.41.41,0.41,0.41,0,0,1,.41-0.41h0Z" transform="translate(-5.12 -5.12)"/><path class="cls-4" d="M58.89,16.3a35.19,35.19,0,0,0-1.22,6.53c0,1.07,2.13,1.17,2.13.09a45,45,0,0,1,.89-6.4c0.28-.85-1.75-1-1.8-0.22h0Z" transform="translate(-5.12 -5.12)"/><path class="cls-3" d="M59.13,16.33a34.05,34.05,0,0,0-1.18,6.43c0,1.07,1.64,1,1.64-.11a40.28,40.28,0,0,1,.82-6.06c0.28-.85-1.23-1-1.28-0.26h0Z" transform="translate(-5.12 -5.12)"/></svg>