<svg id="Layer_1" data-name="Layer 1" xmlns="http://www.w3.org/2000/svg" viewBox="0 0 126.67 126.67"><defs><style>.cls-1{fill:#ebf0c7;}.cls-2{fill:#2e2e33;}.cls-2,.cls-3{fill-rule:evenodd;}.cls-3{fill:#17171a;}</style></defs><title>shirtw</title><circle class="cls-1" cx="63.33" cy="63.33" r="63.33"/><path class="cls-2" d="M64.4,23.21c1.59,0.22,6.25,2.38,10.17,1.1,3.45-1.12,6.25-5.67,7-5.77,1.61-.22.55,0.33,3.78,1.4a65.11,65.11,0,0,1,10.92,4.62,63.13,63.13,0,0,1,12.54,8.23c3.29,2.58,5.54,4.18,6.83,5.36s-0.16,4.14-3.56,8.88-6.86,10.21-8.8,8.6-5.09-2.16-6-2.7-2.67,5.2-3.53,8-1.41,8.49-.87,17.95c0.82,14.28,2.25,16.9,3.45,21.42,1.14,4.29,2.49,8.34,2.71,9.74s-6.53,5.23-16.46,7.18c-10.86,2.14-22.89.68-29.75-.43-6.7-1.08-15.55-4.78-15.34-8s2-7.5,3.36-13.72,3.23-14.13,2.92-21.33a69.38,69.38,0,0,0-1.4-11.17c-0.82-3.7-1.48-7.44-2-8.33s0.25-1.32-1.4-.44a21.49,21.49,0,0,0-4,2.37c-0.89.82-3.73-.22-7.75-4.69s-7.23-10-5.82-11.91S28.4,33,32.23,30c4.54-3.57,5.88-4.62,7.34-5.4a65.22,65.22,0,0,1,11.22-4.54c2.59-1,1.65-1.54,3.86-1.54C55.45,18.53,56.2,22.05,64.4,23.21Z" transform="translate(-5.12 -5.12)"/><path class="cls-3" d="M40.37,54.18c-0.49-.85.24-1.28-1.37-0.4a22.61,22.61,0,0,0-4,2.37c-0.89.82-3.73-.22-7.75-4.69L27,51.18a16.28,16.28,0,0,0,5.61,3.05c1.16,0.17,2.66.5,0-1.49A60,60,0,0,1,24,43.45c-0.83-1.33,2.73,3.14,5,5.29s8.2,3.91,10.25,1.3-0.28-7.17.93-9.78,3.34-4.18,1.85-6.69a16,16,0,0,1-2-5.68c-0.09-.75,1.4,4,2.33,5.4s1.13,0.26.85-1-0.74-4.19-1.49-5.4-1.21-3.82-.37-2.79,2.14,5.68,2.24,8.48-3.84,19.36-3.19,21.4a1.32,1.32,0,0,1,.05.24h0Z" transform="translate(-5.12 -5.12)"/><path class="cls-3" d="M113.08,43.71c-0.43.44-.58,2.72-1,3.31-3.45,4.83-6.86,10.21-8.8,8.6s-5.09-2.16-6-2.7c-0.33-.2.17-0.07,0,0,0.45-1.39-2.43-8.35-2.43-10,0-2.09.31-6.59,0.42-7.74s0.56-1.4,1.81-3.07a38.58,38.58,0,0,0,2.46-3.56C100,27.83,101,28,98.35,31.42s-2.3,5.86-1.88,8.68,0.63,6.49,2.93,9,3.24,3.56,4.29,4.18,2.46-5.74,5-7.83a70.94,70.94,0,0,0,6.28-6.17c0.63-.73-0.63,1.57-4.29,4.92s-5.47,7.14-3.28,6.52c2-.57,3.75-5.24,5.72-7h0Z" transform="translate(-5.12 -5.12)"/><path class="cls-3" d="M67.78,23c12.45,0,12.33-4.37,13.95-4.59s0.4,0.41,3.63,1.48a53.17,53.17,0,0,1,10.92,4.62,9.15,9.15,0,0,1,1.61,1.34c-0.06,3.75-4.59,11.09-5,9.6-0.44-1.8-.09-5,1.72-5.78s1.91-3.43.68-4.5-3.77-1.11-7.39.12S73.18,31.28,67.67,31.1,55.23,27.27,53.79,26s-5.91-3.39-9-2.43a57,57,0,0,0-7.58,2.59,19,19,0,0,1,2.4-1.57,69.13,69.13,0,0,1,11.22-4.54c2.59-1,2.51-2.54,4.31-1.26A21.13,21.13,0,0,0,67.78,23Zm-15.42-3.3c-0.82.37-.77,2.35,0.38,3.94s5.57,4.79,10.73,6.17c5,1.34,11.44,0,15.56-2.26a8.75,8.75,0,0,0,4.46-7,1.63,1.63,0,0,0-1.15-1.86c-0.61-.29-0.17,4.46-6.26,7.6-5.56,2.87-14.08,1.43-16.39-.09-2.63-1.74-5.42-3.87-5.31-6.69,0-.78-1.2-0.19-2,0.18h0Z" transform="translate(-5.12 -5.12)"/><path class="cls-3" d="M38.05,108.65c0.86,1.25,6.73,5.22,12.29,6.42,6.17,1.33,11.94,1.7,19.35,2.17s20-3.28,22-4.52,8-3.55,6.48-2.62S89,113.59,80.7,115.24a51.43,51.43,0,0,1-16.43,1,99.18,99.18,0,0,1-14.51-1.92c-3.18-.78-8.2-3.49-11.71-5.67h0Z" transform="translate(-5.12 -5.12)"/><path class="cls-2" d="M81,19.84c0.55,1.6-4.75,7.38-12.82,7.62-4.44.13-9.76-1.89-12.36-5.68-0.17-.25-0.77-1-0.33-1.25s2.42,3,12.56,3.13S80.43,19.11,81,19.84Z" transform="translate(-5.12 -5.12)"/></svg>