<svg id="Layer_1" data-name="Layer 1" xmlns="http://www.w3.org/2000/svg" viewBox="0 0 126.67 126.67"><defs><style>.cls-1{fill:#ebf0c7;}.cls-2{fill:#2e2e33;}.cls-2,.cls-3,.cls-4{fill-rule:evenodd;}.cls-3{fill:#0f0d0f;}.cls-4{fill:#17171a;}</style></defs><title>shirtm</title><circle class="cls-1" cx="63.33" cy="63.33" r="63.33"/><path class="cls-2" d="M68.06,19.23a77.23,77.23,0,0,0,8.28-.54c1.61-.22,2.15,1.18,5.38,2.26s12.48,3.55,17.42,7.31,11.19,12.37,14.2,15.27,3.87,4.41,5.16,5.59,0.22,2.9-4,7-8,6.78-9.89,5.16-7.85-7.1-8.71-7.64-0.86-.54-1.72,2.26S92.26,66.66,91.93,81s0.11,17.42.65,21.83,1,9.36,1.18,10.75-1.18,5.27-11.29,4.73a286.94,286.94,0,0,0-29.15.11c-6.78.43-12.69-1.18-12.48-4.41s0.75-10.65,1.29-17,1.94-14.84,1.72-22,0.05-7.27-.39-10.92-1.42-7.6-1.94-8.49-0.45-.75-1.79.37-8.19,7.15-9.09,8-3.73-.22-7.75-4.69-6-6.78-4.54-8.64,8.94-12.22,12-16,3.94-5.11,9.21-7.89,12.75-5.08,15.33-6,3.64-2.3,5.85-2.11a58.55,58.55,0,0,0,7.31.75h0Z" transform="translate(-5.12 -5.12)"/><path class="cls-3" d="M68.06,19.23a77.23,77.23,0,0,0,8.28-.54,2.18,2.18,0,0,1,1,.08c0.59,2-.75,6.85-9.46,7.14s-9.23-6.3-8.32-7.39a4.41,4.41,0,0,1,1.2-.05,58.55,58.55,0,0,0,7.31.75h0Z" transform="translate(-5.12 -5.12)"/><path class="cls-4" d="M41.51,55.48c-0.49-.85-0.44-0.68-1.76.42s-8.19,7.15-9.09,8-3.73-.22-7.75-4.69l-0.25-.28a16.28,16.28,0,0,0,5.61,3.05c1.16,0.17,2.66.5,0-1.49a60,60,0,0,1-8.63-9.29c-0.83-1.33,2.73,3.14,5,5.29s8.2,3.91,10.25,1.3-0.28-7.17.93-9.78,0.09-7,1.12-7.17,0.56-1.49-.93-4a16,16,0,0,1-2-5.68c-0.09-.75,1.4,4,2.33,5.4S39,41.26,38.75,40s-0.74-4.19-1.49-5.4-1.21-3.82-.37-2.79,2.14,5.68,2.24,8.48a115.23,115.23,0,0,0,2.33,15,1.32,1.32,0,0,1,.05.24h0Z" transform="translate(-5.12 -5.12)"/><path class="cls-4" d="M115.95,54.69q-0.64.66-1.43,1.43c-4.19,4.09-8,6.78-9.89,5.16s-7.85-7.1-8.71-7.64a0.88,0.88,0,0,0-.7-0.26,16.35,16.35,0,0,0,1-4.8c0-2.09.31-6.59,0.42-7.74s1.26-2.3,2.51-4a43.78,43.78,0,0,0,2.82-4.5c0.42-.73.31,1.26-2.3,4.71s-2.3,5.86-1.88,8.68,0.63,6.49,2.93,9S104,58.32,105,58.95s4-.42,6.49-2.51a70.94,70.94,0,0,0,6.28-6.17c0.63-.73-0.63,1.57-4.29,4.92s-6.9,5.34-4.71,4.71c2-.57,5.18-3.43,7.15-5.2h0Z" transform="translate(-5.12 -5.12)"/><path class="cls-4" d="M68.06,19.23a77.23,77.23,0,0,0,8.28-.54c1.61-.22,2.15,1.18,5.38,2.26s12.48,3.55,17.42,7.31c0.52,0.4,1.06.85,1.61,1.34-0.06,3.75-3.62,9.56-4,8.08-0.44-1.8.16-4.52,2-5.26s2.05-2.38.82-3.45-10-4.44-13.64-3.2-12,3.61-17.5,3.43-9.06-1.43-10.5-2.67-10-1.89-13.14-.93a70.34,70.34,0,0,0-8.42,2.9c0.87-.57,1.92-1.18,3.23-1.87,5.27-2.78,12.75-5.08,15.33-6s3.64-2.3,5.85-2.11a58.55,58.55,0,0,0,7.31.75h0Zm-11.59,1c-0.82.37-.77,2.35,0.38,3.94s1.59,3.23,6.84,4.16,9.14,0.55,11.83-1a10,10,0,0,0,4.33-5.69,1.71,1.71,0,0,0-1.15-1.86c-0.82-.49-1-0.68-1,0.38s-1.61,5.81-9.25,6-9.8-3.62-9.45-6.43c0.17-1.34-1.72.14-2.54,0.51h0Z" transform="translate(-5.12 -5.12)"/><path class="cls-4" d="M41.38,113.86c0.86,1.25,3.66,2.65,9.35,2.42s12.15-1.32,19.56-.86,19.4,0.55,21.43-.7,2.73-2,1.17-1.09-3.51,2-11.92,1.79-13.4-.62-16.6-0.47-11.06.86-14.34,0.86-5.14.23-8.65-1.95h0Z" transform="translate(-5.12 -5.12)"/><path class="cls-2" d="M68.08,20.1c2.79,0,6.17-.25,7.67-0.42a2.37,2.37,0,0,1,.91.07c0.55,1.6-.69,5.34-8.76,5.57s-8.55-4.91-7.7-5.77a4.83,4.83,0,0,1,1.11,0,64,64,0,0,0,6.77.59h0Z" transform="translate(-5.12 -5.12)"/></svg>