<svg id="Layer_1" data-name="Layer 1" xmlns="http://www.w3.org/2000/svg" viewBox="0 0 126.67 126.67"><defs><style>.cls-1{fill:#ebf0c7;}.cls-2{fill:#4e4e4e;}.cls-3{fill:#a39b8e;}.cls-4{fill:#928475;}</style></defs><title>shoesm</title><circle class="cls-1" cx="63.33" cy="63.33" r="63.33"/><path class="cls-2" d="M19.19,51.58s22.28,4.55,40.33-3.37c0,0-5.45,12-26.79,12C20.28,60.76,19.19,51.58,19.19,51.58Z" transform="translate(-5.12 -5.12)"/><path class="cls-3" d="M59.52,48.21A172.17,172.17,0,0,1,80.89,61.55C91.82,69.58,122,72.31,122,72.31s2.57,6.43.8,9.32c0,0-10,8.84-47.4,6.75V87.1S24,87.1,15.81,85V78.9s-5.3-6.11,0-15.91,3.37-11.41,3.37-11.41S34,65.89,59.52,48.21Z" transform="translate(-5.12 -5.12)"/><path class="cls-2" d="M15.69,78.74l0.13,0.16V85C24,87.1,75.43,87.1,75.43,87.1v1.28c37.44,2.09,47.4-6.75,47.4-6.75a5.45,5.45,0,0,0,.61-2.89s-1.74,5-42.39,5S15.69,78.74,15.69,78.74Z" transform="translate(-5.12 -5.12)"/><path class="cls-4" d="M76.72,75.85c5.62-.64,6.91-12.61,6.91-12.61a23.14,23.14,0,0,1-2.73-1.69A172.17,172.17,0,0,0,59.52,48.21C34,65.89,19.19,51.58,19.19,51.58S21.12,53.19,15.81,63a18.37,18.37,0,0,0-2.32,7.47c-0.15,2.19,31.08.63,31.57,2C45.06,72.48,71.09,76.49,76.72,75.85Z" transform="translate(-5.12 -5.12)"/><ellipse class="cls-3" cx="58.58" cy="49.59" rx="2.25" ry="1.85"/><ellipse class="cls-3" cx="67.24" cy="55.09" rx="2.25" ry="1.85"/></svg>