<svg id="Layer_1" data-name="Layer 1" xmlns="http://www.w3.org/2000/svg" viewBox="0 0 126.67 126.67"><defs><style>.cls-1{fill:#ebf0c7;}.cls-2{fill:#644e3e;}.cls-3{fill:#4a3a2d;}.cls-4{fill:#c39177;}</style></defs><title>shoesw2</title><circle class="cls-1" cx="63.33" cy="63.33" r="63.33"/><path class="cls-2" d="M40.07,33.53V30.93a111.62,111.62,0,0,0,16.35,4.44,105.72,105.72,0,0,0,19.2,1.84l-0.71,2.84H54.4Z" transform="translate(-5.12 -5.12)"/><path class="cls-3" d="M45.27,100.72S39,105.07,36.74,102c0,0,1.88-7.73-3-40.94-0.56-3.81,14.61,4.87,14.61,4.87Z" transform="translate(-5.12 -5.12)"/><path class="cls-2" d="M43.76,101.65s-6.64,3.54-8.86.44c0,0,2.21-6.64-2.66-39.85-0.56-3.81,14.61,4.87,14.61,4.87Z" transform="translate(-5.12 -5.12)"/><path class="cls-4" d="M86.71,80.84S76.53,78.18,75.64,38.77c-4.62.89-10,0-14.47-.41-6.89-.65-13-1.9-19.26-5a10.12,10.12,0,0,1-1.1-.63l-1-.18s-2.9,12.91-7.53,18.16c-2.42,2.74-5.31,10.18-.44,14.61s19,3.54,30.11,38.08c0,0,19,9.3,43.4-7.53C105.31,95.9,117.71,82.17,86.71,80.84Z" transform="translate(-5.12 -5.12)"/><path class="cls-2" d="M94.68,100.26a42.29,42.29,0,0,1-23.65,0c-3.7-1.05-7.08-3-10.62-4.48-0.56-.33-1.09-0.68-1.63-1,1.06,2.62,2.11,5.5,3.13,8.68,0,0,19,9.3,43.4-7.53l0.15-.18Q100.17,98.24,94.68,100.26Z" transform="translate(-5.12 -5.12)"/></svg>