<?xml version="1.0" encoding="utf-8"?>
<!-- Generator: Adobe Illustrator 19.2.0, SVG Export Plug-In . SVG Version: 6.00 Build 0)  -->
<svg version="1.1" id="Layer_1" xmlns="http://www.w3.org/2000/svg" xmlns:xlink="http://www.w3.org/1999/xlink" x="0px" y="0px"
	 viewBox="0 0 126.7 126.7" style="enable-background:new 0 0 126.7 126.7;" xml:space="preserve">
<style type="text/css">
	.st0{fill:#F7EBF3;}
	.st1{fill:#333333;}
	.st2{fill:#E3C8A5;}
	.st3{fill:#A52B31;}
</style>
<title>hair_black</title>
<circle class="st0" cx="63.3" cy="63.3" r="63.3"/>
<path class="st1" d="M63.3,14.5c0,0,16.2-10.9,31.5,12.3s-6,82.4-6,82.4h-51c0,0-21.3-59.2-6-82.4S63.3,14.5,63.3,14.5z"/>
<path class="st2" d="M70.2,81.2c8.8-3.3,15.1-13.2,15.1-25c0-14.4-9.6-26.2-21.5-26.2S42.4,41.8,42.4,56.2c0,11.8,6.4,21.7,15.1,25
	c0.5,6.4-0.7,22.9-27.4,24.4c-1,0.1-1.8,0.9-1.7,1.9c0,0.7,0.4,1.3,1,1.5c6.1,2.9,19.2,5.6,34.4,5.6s28.4-2.6,34.4-5.6
	c0.9-0.4,1.3-1.5,0.9-2.4c-0.3-0.6-0.9-1-1.5-1C70.9,104.1,69.6,87.6,70.2,81.2z"/>
<path class="st3" d="M65,70c-0.4,0-0.8,0.1-1.1,0.4c-0.3-0.3-0.7-0.4-1.1-0.4c-0.8,0-3.3,1.9-4.2,2.6c0.6,0.3,1.2,0.7,1.7,1.1
	c0.8,1.3,2.2,2.1,3.6,2.2c1.5-0.1,2.9-0.9,3.6-2.2c0.5-0.5,1-0.8,1.7-1.1C68.3,71.9,65.8,70,65,70z"/>
<path class="st1" d="M42.4,49.6c22.6,0,30.4-17.2,30.4-17.2s3.7,17.2,12.5,17.2h7.5l-3-27.4H43.9l-10,27.4H42.4L42.4,49.6z"/>
</svg>
