<?xml version="1.0" encoding="utf-8"?>
<!-- Generator: Adobe Illustrator 19.2.0, SVG Export Plug-In . SVG Version: 6.00 Build 0)  -->
<svg version="1.1" id="Layer_1" xmlns="http://www.w3.org/2000/svg" xmlns:xlink="http://www.w3.org/1999/xlink" x="0px" y="0px"
	 viewBox="0 0 126.7 126.7" style="enable-background:new 0 0 126.7 126.7;" xml:space="preserve">
<style type="text/css">
	.st0{fill:#F7EBF3;}
	.st1{fill:#FFFFFF;}
	.st2{fill:#4E4E4E;}
	.st3{fill:#363636;}
	.st4{fill:#DF9130;}
	.st5{fill:#F0F0F0;}
	.st6{font-family:'Helvetica';}
	.st7{font-size:4px;}
	.st8{fill:#00A99D;}
	.st9{fill:#603813;}
</style>
<title>hair_dye</title>
<circle class="st0" cx="63.3" cy="63.3" r="63.3"/>
<polygon class="st1" points="68.1,30.6 72.2,43.7 66.8,31.1 "/>
<polygon class="st1" points="69.8,30 73.8,43.1 68.4,30.5 "/>
<polygon class="st1" points="71.5,29.4 75.5,42.5 70.1,29.9 "/>
<polygon class="st1" points="73.2,28.7 77.2,41.9 71.8,29.3 "/>
<polygon class="st1" points="74.9,28.1 78.9,41.3 73.5,28.6 "/>
<polygon class="st1" points="76.6,27.5 80.6,40.7 75.2,28 "/>
<polygon class="st1" points="78.2,26.9 82.2,40.1 76.8,27.4 "/>
<polygon class="st1" points="79.9,26.3 83.9,39.4 78.5,26.8 "/>
<polygon class="st1" points="81.6,25.7 85.6,38.8 80.2,26.2 "/>
<polygon class="st1" points="83.3,25.1 87.3,38.2 81.9,25.6 "/>
<polygon class="st1" points="85,24.4 89,37.6 83.6,24.9 "/>
<polygon class="st1" points="86.7,23.8 90.7,37 85.3,24.3 "/>
<path class="st2" d="M71.4,43.8c1.7,4.5,7.4,8.8,11.9,7.1c0,0,20.1,53.9,21.5,53.4s-18-54.7-18-54.7c4.5-1.7,6.2-8.6,4.5-13.1
	C91.2,36.2,71.3,43.4,71.4,43.8z"/>
<path class="st3" d="M34.2,87.1h6.9c0.4,0,0.8,0.4,0.8,0.8v11.8c0,0.4-0.4,0.8-0.8,0.8h-6.9c-0.4,0-0.8-0.4-0.8-0.8V87.9
	C33.5,87.5,33.8,87.1,34.2,87.1z"/>
<path class="st4" d="M48.5,79.9c0,5.9-4.8,10.7-10.7,10.7l0,0c-5.9,0-10.7-4.8-10.7-10.7l-1.6-55.4c0-5.9,6.4-2.9,12.3-2.9l0,0
	c5.9,0,12.3-3.1,12.3,2.9L48.5,79.9z"/>
<polygon class="st2" points="49.7,37 49.9,30.3 25.6,30.3 25.8,37 "/>
<polygon class="st2" points="48.7,72.5 49.4,46.5 26,46.5 26.8,72.5 "/>
<path class="st2" d="M26.7,24.7c-0.1,0-0.2-0.1-0.2-0.2v0v-3.1c0-0.1,0-0.2,0.2-0.2s0.2,0,0.2,0.2c0,0,0,0.1,0,0.1v3.1
	C26.9,24.6,26.8,24.7,26.7,24.7z"/>
<path class="st2" d="M27.5,24.3c-0.1,0-0.2-0.1-0.2-0.2v0V21c0-0.1,0.1-0.2,0.2-0.2c0.1,0,0.1,0.1,0.2,0.2v3.1
	C27.7,24.3,27.6,24.3,27.5,24.3z"/>
<path class="st2" d="M28.2,24.2c-0.1,0-0.2-0.1-0.2-0.2v0v-3.1c0-0.1,0-0.2,0.2-0.2c0.1,0,0.2,0,0.2,0.2c0,0,0,0.1,0,0.1V24
	C28.4,24.1,28.4,24.2,28.2,24.2z"/>
<path class="st2" d="M29,24.2c-0.1,0-0.2-0.1-0.2-0.2v0v-3.2c0-0.1,0-0.2,0.2-0.2c0.1,0,0.2,0,0.2,0.2c0,0,0,0.1,0,0.1V24
	C29.2,24.1,29.1,24.2,29,24.2C29,24.2,29,24.2,29,24.2z"/>
<path class="st2" d="M29.8,24.1c-0.1,0-0.2-0.1-0.2-0.2v0v-3.1c0-0.1,0-0.2,0.2-0.2c0.1,0,0.2,0,0.2,0.2c0,0,0,0.1,0,0.1v3.1
	C30,24,29.9,24.1,29.8,24.1z"/>
<path class="st2" d="M30.5,24.3c-0.1,0-0.2-0.1-0.2-0.2v0V21c0-0.1,0.1-0.2,0.2-0.2c0.1,0,0.1,0.1,0.2,0.2v3.1
	C30.7,24.2,30.6,24.3,30.5,24.3z"/>
<path class="st2" d="M31.3,24.4c-0.1,0-0.2-0.1-0.2-0.2v0V21c0-0.1,0.1-0.2,0.2-0.2c0.1,0,0.1,0.1,0.2,0.2v3.1
	C31.5,24.3,31.4,24.4,31.3,24.4z"/>
<path class="st2" d="M32,24.5c-0.1,0-0.2-0.1-0.2-0.2v0v-3.1c0-0.1,0-0.2,0.2-0.2c0.1,0,0.2,0,0.2,0.2c0,0,0,0.1,0,0.1v3.1
	C32.2,24.4,32.1,24.5,32,24.5z"/>
<path class="st2" d="M32.8,24.5c-0.1,0-0.2-0.1-0.2-0.2v0v-3.1c0-0.1,0-0.2,0.2-0.2c0.1,0,0.2,0,0.2,0.2c0,0,0,0.1,0,0.1v3.1
	C33,24.4,32.9,24.5,32.8,24.5z"/>
<path class="st2" d="M33.5,24.6c-0.1,0-0.2-0.1-0.2-0.2v0v-3.1c0-0.1,0-0.2,0.2-0.2c0.1,0,0.2,0,0.2,0.2c0,0,0,0.1,0,0.1v3.1
	C33.7,24.5,33.7,24.6,33.5,24.6z"/>
<path class="st2" d="M34.3,24.7c-0.1,0-0.2-0.1-0.2-0.2v0v-3.1c0-0.1,0-0.2,0.2-0.2c0.1,0,0.2,0,0.2,0.2c0,0,0,0.1,0,0.1v3.1
	C34.5,24.6,34.4,24.7,34.3,24.7z"/>
<path class="st2" d="M35.1,24.7c-0.1,0-0.2-0.1-0.2-0.2v0v-3.1c0-0.1,0-0.2,0.2-0.2c0.1,0,0.2,0,0.2,0.2c0,0,0,0.1,0,0.1v3.1
	C35.3,24.6,35.2,24.7,35.1,24.7z"/>
<path class="st2" d="M35.8,24.7c-0.1,0-0.2-0.1-0.2-0.2v0v-3.1c0-0.1,0-0.2,0.2-0.2c0.1,0,0.2,0,0.2,0.2c0,0,0,0.1,0,0.1v3.1
	C36,24.6,35.9,24.7,35.8,24.7z"/>
<path class="st2" d="M36.6,24.9c-0.1,0-0.2-0.1-0.2-0.2v0v-3.1c0-0.1,0-0.2,0.2-0.2c0.1,0,0.2,0,0.2,0.2c0,0,0,0.1,0,0.1v3.1
	C36.8,24.8,36.7,24.9,36.6,24.9z"/>
<path class="st2" d="M37.3,24.9c-0.1,0-0.2-0.1-0.2-0.2v0v-3.1c0-0.1,0-0.2,0.2-0.2c0.1,0,0.2,0,0.2,0.2c0,0,0,0.1,0,0.1v3.1
	C37.5,24.9,37.4,24.9,37.3,24.9z"/>
<path class="st2" d="M26,25.3c-0.1,0-0.2-0.1-0.2-0.2v0V22c0-0.1,0.1-0.2,0.2-0.2c0.1,0,0.1,0.1,0.2,0.2v3.1
	C26.2,25.2,26.1,25.3,26,25.3z"/>
<path class="st2" d="M48.7,24.7c-0.1,0-0.2-0.1-0.2-0.2v0v-3.1c0-0.1,0-0.2,0.2-0.2c0.1,0,0.2,0,0.2,0.2c0,0,0,0.1,0,0.1v3.1
	C48.9,24.6,48.8,24.7,48.7,24.7z"/>
<path class="st2" d="M47.9,24.3c-0.1,0-0.2-0.1-0.2-0.2v0V21c0-0.1,0.1-0.2,0.2-0.2c0.1,0,0.1,0.1,0.2,0.2v3.1
	C48.1,24.3,48,24.3,47.9,24.3z"/>
<path class="st2" d="M47.2,24.2c-0.1,0-0.2-0.1-0.2-0.2v0v-3.1c0-0.1,0-0.2,0.2-0.2c0.1,0,0.2,0,0.2,0.2c0,0,0,0.1,0,0.1V24
	C47.4,24.1,47.3,24.2,47.2,24.2z"/>
<path class="st2" d="M46.4,24.2c-0.1,0-0.2-0.1-0.2-0.2v0v-3.2c0-0.1,0-0.2,0.2-0.2c0.1,0,0.2,0,0.2,0.2c0,0,0,0.1,0,0.1V24
	C46.6,24.1,46.6,24.2,46.4,24.2C46.4,24.2,46.4,24.2,46.4,24.2z"/>
<path class="st2" d="M45.7,24.1c-0.1,0-0.2-0.1-0.2-0.2v0v-3.1c0-0.1,0-0.2,0.2-0.2c0.1,0,0.2,0,0.2,0.2c0,0,0,0.1,0,0.1v3.1
	C45.9,24,45.8,24.1,45.7,24.1z"/>
<path class="st2" d="M44.9,24.3c-0.1,0-0.2-0.1-0.2-0.2v0V21c0-0.1,0.1-0.2,0.2-0.2c0.1,0,0.1,0.1,0.2,0.2v3.1
	C45.1,24.2,45,24.3,44.9,24.3z"/>
<path class="st2" d="M44.2,24.4c-0.1,0-0.2-0.1-0.2-0.2v0V21c0-0.1,0.1-0.2,0.2-0.2c0.1,0,0.1,0.1,0.2,0.2v3.1
	C44.4,24.3,44.3,24.4,44.2,24.4z"/>
<path class="st2" d="M43.4,24.5c-0.1,0-0.2-0.1-0.2-0.2v0v-3.1c0-0.1,0-0.2,0.2-0.2c0.1,0,0.2,0,0.2,0.2c0,0,0,0.1,0,0.1v3.1
	C43.6,24.4,43.5,24.5,43.4,24.5z"/>
<path class="st2" d="M42.6,24.5c-0.1,0-0.2-0.1-0.2-0.2v0v-3.1c0-0.1,0-0.2,0.2-0.2c0.1,0,0.2,0,0.2,0.2c0,0,0,0.1,0,0.1v3.1
	C42.8,24.4,42.7,24.5,42.6,24.5z"/>
<path class="st2" d="M41.9,24.6c-0.1,0-0.2-0.1-0.2-0.2v0v-3.1c0-0.1,0-0.2,0.2-0.2c0.1,0,0.2,0,0.2,0.2c0,0,0,0.1,0,0.1v3.1
	C42.1,24.5,42,24.6,41.9,24.6z"/>
<path class="st2" d="M41.1,24.7c-0.1,0-0.2-0.1-0.2-0.2v0v-3.1c0-0.1,0-0.2,0.2-0.2c0.1,0,0.2,0,0.2,0.2c0,0,0,0.1,0,0.1v3.1
	C41.3,24.6,41.2,24.7,41.1,24.7z"/>
<path class="st2" d="M40.4,24.7c-0.1,0-0.2-0.1-0.2-0.2v0v-3.1c0-0.1,0-0.2,0.2-0.2c0.1,0,0.2,0,0.2,0.2c0,0,0,0.1,0,0.1v3.1
	C40.6,24.6,40.5,24.7,40.4,24.7z"/>
<path class="st2" d="M39.6,24.7c-0.1,0-0.2-0.1-0.2-0.2v0v-3.1c0-0.1,0-0.2,0.2-0.2c0.1,0,0.2,0,0.2,0.2c0,0,0,0.1,0,0.1v3.1
	C39.8,24.6,39.7,24.7,39.6,24.7z"/>
<path class="st2" d="M38.9,24.9c-0.1,0-0.2-0.1-0.2-0.2v0v-3.1c0-0.1,0-0.2,0.2-0.2c0.1,0,0.2,0,0.2,0.2c0,0,0,0.1,0,0.1v3.1
	C39.1,24.8,39,24.9,38.9,24.9z"/>
<path class="st2" d="M38.1,24.9c-0.1,0-0.2-0.1-0.2-0.2v0v-3.1c0-0.1,0.1-0.2,0.2-0.2c0.1,0,0.1,0.1,0.2,0.2v3.1
	C38.3,24.9,38.2,24.9,38.1,24.9z"/>
<path class="st2" d="M49.5,25.3c-0.1,0-0.2-0.1-0.2-0.2v0V22c0-0.1,0.1-0.2,0.2-0.2c0.1,0,0.1,0.1,0.2,0.2v3.1
	C49.7,25.2,49.6,25.3,49.5,25.3z"/>
<text transform="matrix(6.123234e-17 -1 1 6.123234e-17 33.46 70.3202)" class="st5 st6 st7">COLOR 30ยบ</text>
<path class="st8" d="M85.7,88.5c-1.4,0.7-3,1.6-3.7,3.3c-3.1,7.7-7.7,11.3-9.1,12.3H50.5c-1.8-1.2-9.1-7-11.3-20.6h50.8
	C89.4,86.6,87.7,87.5,85.7,88.5z"/>
<path class="st9" d="M65,78.4c0.9,0.6,1.9,1.1,3,1.5c2.5,0.8,5.1-0.6,6.4-3.6c0.8-2,1.1-4.3,0.7-6.4c3.2,2.1,6.8,6.1,7,13.7H43.9
	c2-3.6,5.5-6.2,9.6-7C59.9,75.2,62.6,76.9,65,78.4z"/>
</svg>
